<?xml version="1.0" encoding="UTF-8" standalone="no"?><svg xmlns="http://www.w3.org/2000/svg" xmlns:xlink="http://www.w3.org/1999/xlink" fill="#000000" height="500" preserveAspectRatio="xMidYMid meet" version="1" viewBox="0.0 0.0 367.1 500.0" width="367.1" zoomAndPan="magnify"><g id="Illustration"><g id="change1_1"><path d="M169.387619,459.1550598H18.002285C8.0598974,459.1550598,0,451.0951538,0,441.152771V18.002285 C0,8.0598974,8.0598974,0,18.002285,0H169.387619c9.9423828,0,18.0022888,8.0598974,18.0022888,18.002285V441.152771 C187.3899078,451.0951538,179.3300018,459.1550598,169.387619,459.1550598z" fill="#ccf4e5"/></g><g id="change2_1"><path d="M246.2363586,500H26.7426796c-3.3138981,0-6.0007629-2.6868591-6.0007629-6.0007629V20.9059753 c0-3.3138981,2.6868649-6.0007629,6.0007629-6.0007629h333.8597717c3.3139038,0,6.0007629,2.6868649,6.0007629,6.0007629 v358.7271729c0,1.5910339-0.6329041,3.1175842-1.7580261,4.2427368L250.4790955,498.2419739 C249.3539429,499.3670959,247.8273926,500,246.2363586,500z M32.7434425,487.9984741h211.0082397L354.6016846,377.148468 V26.9067364H32.7434425V487.9984741z" fill="#172627"/></g><g id="change2_2"><path d="M246.2363586,500c-0.7735291,0-1.5529327-0.1494446-2.2971649-0.4570923 c-2.2414856-0.928833-3.703598-3.1175842-3.703598-5.5436707V379.6331482c0-3.3139038,2.6868744-6.0007629,6.0007629-6.0007629 h114.3660889c2.4260864,0,4.6148376,1.4620972,5.5436707,3.7036133c0.928833,2.2444153,0.4160767,4.822876-1.3009338,6.5398865 L250.4790955,498.2419739C249.3305054,499.3905334,247.7951508,500,246.2363586,500z M252.2371216,385.6339111v93.8791199 l93.8791199-93.8791199H252.2371216z" fill="#172627"/></g><g id="change2_3"><path d="M291.5321655,166.4391022H95.8100433c-3.3138962,0-6.0007629-2.6868744-6.0007629-6.0007629 c0-3.3139038,2.6868668-6.0007629,6.0007629-6.0007629h195.7221222c3.3138733,0,6.0007629,2.6868591,6.0007629,6.0007629 C297.5329285,163.7522278,294.8460388,166.4391022,291.5321655,166.4391022z" fill="#172627"/></g><g id="change2_4"><path d="M291.5321655,226.8364105H95.8100433c-3.3138962,0-6.0007629-2.6868591-6.0007629-6.0007629 c0-3.3138885,2.6868668-6.0007629,6.0007629-6.0007629h195.7221222c3.3138733,0,6.0007629,2.6868744,6.0007629,6.0007629 C297.5329285,224.1495514,294.8460388,226.8364105,291.5321655,226.8364105z" fill="#172627"/></g><g id="change2_5"><path d="M237.5252991,287.2308044H95.8100433c-3.3138962,0-6.0007629-2.6868591-6.0007629-6.0007629 s2.6868668-6.0007629,6.0007629-6.0007629h141.7152557c3.3138885,0,6.0007629,2.6868591,6.0007629,6.0007629 S240.8391876,287.2308044,237.5252991,287.2308044z" fill="#172627"/></g></g></svg>