<?xml version="1.0" encoding="UTF-8" standalone="no"?><svg xmlns="http://www.w3.org/2000/svg" xmlns:xlink="http://www.w3.org/1999/xlink" fill="#000000" height="500" preserveAspectRatio="xMidYMid meet" version="1" viewBox="-0.2 0.0 375.8 500.0" width="375.8" zoomAndPan="magnify"><g id="Illustration"><g id="change1_1"><path d="M187.6666412,5.7252517c-24.0074463,0-45.9923096,8.6058502-63.083992,22.8765278 c5.6113205,28.4587212,26.1480942,58.7487984,57.9448776,80.7375793 c33.2480164,22.9930038,70.6454773,31.2817001,99.8656311,24.9904099 c2.4499207-10.4828415,3.7893982-20.7059784,3.7893982-30.0885925 C286.1825562,49.8326912,242.0755157,5.7252517,187.6666412,5.7252517z" fill="#ccf4e5"/></g><g id="change1_2"><path d="M89.1503143,104.2411804c0-15.2772522,3.5788879-29.684082,9.7855682-42.5893173l-0.0653229-0.1322174 c0,0-65.305687,96.7947617-33.1767883,159.185791c32.1292877,62.391037,121.9728699,20.3809509,121.9728699,20.3809509 C133.25737,241.08638,89.1503143,158.6504517,89.1503143,104.2411804z" fill="#ccf4e5"/></g><g id="change1_3"><path d="M286.1829529,104.2411804c0-15.2772522-3.5788879-29.684082-9.785553-42.5893173l0.0653076-0.1322174 c0,0,65.3056946,96.7947617,33.1767883,159.185791c-32.1292725,62.391037-121.9728546,20.3809509-121.9728546,20.3809509 C242.0759125,241.08638,286.1829529,158.6504517,286.1829529,104.2411804z" fill="#ccf4e5"/></g><g id="change2_1"><path d="M187.6669922,246.8114166c-59.4802094,0-104.2434387-86.487442-104.2434387-142.5707703 C83.4235535,46.762207,130.1857605,0,187.6669922,0c57.4784241,0,104.2406311,46.762207,104.2406311,104.2406387 C291.9076233,160.3239746,247.1443939,246.8114166,187.6669922,246.8114166z M187.6669922,11.4515123 c-51.1655579,0-92.7919235,41.6263618-92.7919235,92.7891235c0,51.7778397,41.5704422,131.1192627,92.7919235,131.1192627 c51.2186737,0,92.7891235-79.3414154,92.7891235-131.1192627 C280.4561157,53.0778732,238.8297577,11.4515123,187.6669922,11.4515123z" fill="#172627"/></g><g id="change2_2"><path d="M369.6079407,500H5.7260451c-1.7221999,0-3.3521395-0.7744446-4.4396977-2.1108093 c-1.0875583-1.3335876-1.5153126-3.0893555-1.1686358-4.7752075l23.6718655-114.4424133 c10.4646034-50.5840454,50.1227303-88.8918152,101.0394745-97.5922852l12.3880997-2.116394 c33.4794617-5.7173767,67.4258118-5.7173767,100.8996735,0l12.3881073,2.116394 c50.9139252,8.7032471,90.5720673,47.0082397,101.0366669,97.5922852l23.6746826,114.4424133 c0.3466492,1.6858521-0.0810852,3.4416199-1.1686401,4.7752075C372.960083,499.2255554,371.3301392,500,369.6079407,500z M12.757431,488.5484924h349.8190918l-22.2516174-107.556427l0,0 c-9.5000305-45.9346619-45.5152893-80.7225647-91.7490845-88.6234131l-12.388092-2.1164246 c-32.2017975-5.5048828-64.8509064-5.5020752-97.0415039,0l-12.3881073,2.1164246 c-46.2365952,7.9008484-82.2518311,42.6887512-91.7518921,88.6234131L12.757431,488.5484924z" fill="#172627"/></g><g id="change2_3"><path d="M70.9348068,500c-3.1620255,0-5.7257538-2.5637207-5.7257538-5.725769v-69.0585327 c0-3.1620178,2.5637283-5.725769,5.7257538-5.725769s5.7257538,2.5637512,5.7257538,5.725769v69.0585327 C76.6605606,497.4362793,74.0968323,500,70.9348068,500z" fill="#172627"/></g><g id="change2_4"><path d="M304.3991699,500c-3.1620178,0-5.725769-2.5637207-5.725769-5.725769v-69.0585327 c0-3.1620178,2.5637512-5.725769,5.725769-5.725769s5.725769,2.5637512,5.725769,5.725769v69.0585327 C310.124939,497.4362793,307.5611877,500,304.3991699,500z" fill="#172627"/></g></g></svg>