<?xml version="1.0" encoding="UTF-8" standalone="no"?><svg xmlns="http://www.w3.org/2000/svg" xmlns:xlink="http://www.w3.org/1999/xlink" fill="#000000" height="360.2" preserveAspectRatio="xMidYMid meet" version="1" viewBox="0.0 -0.0 378.8 360.2" width="378.8" zoomAndPan="magnify"><g id="change1_1"><path d="M54.431,359.7336H0.4999v-44.6857h53.931V359.7336z M166.2046,352.9971c0,0,0-6.5068-5.7524-6.5068 c-5.7523,0-16.4084,0.1886-16.4084,0.1886l-0.4715-51.7712l8.2985-6.5068c0,0,7.9213,0.0943,12.2591-6.7897 c6.6011,0,42.4354,0,46.1132,0c3.6777,0,9.0529-2.0746,9.0529-8.2042c0-6.1295-0.1886-14.3337-0.1886-14.3337 s10.9389,13.485,20.369,13.3907s17.4457-7.1669,17.4457-7.1669l0.1886,54.9775l3.7721,0.1886c0,0-1.6031,27.253-1.6031,32.2509 l29.7048,0.4715h60.7299c0,0,2.2397-8.3928,2.3104-10.5853c1.6974,0.4243,4.8094,1.4852,4.8094,1.4852l9.6187-27.4416 c0,0,9.1943-29.8463,10.7503-40.1722s0.9902-20.7934-1.6974-33.0996c-2.6876-12.3063-5.3752-29.9877-10.7503-43.2842 c-5.3752-13.2964-8.6993-19.8739-14.0744-23.6224s-15.5597-8.8407-35.9994-9.4772c-0.2829-3.7485-0.0707-18.0351-0.0707-18.0351 l3.5363-1.556c0,0-2.5461,3.0412,0.0707,7.3555c2.6169,4.3143,6.7897,4.5972,11.5283,2.4754 c4.7386-2.1218,10.5381-4.385,13.3672-12.2355s1.1316-11.4576-2.6876-13.4379c-3.8192-1.9803-8.9114,0.1414-9.548,0.9194 c0.9194-4.1021,3.1827-11.6697,0.9194-23.3395c-2.2632-11.6698-11.1039-18.8838-26.7343-21.5006 c-15.6304-2.6169-31.6144,1.0609-36.7067,6.7189s-12.0234,18.9545-2.7583,28.0074c0,0-4.7386,5.5166-4.7386,7.7798 c0,2.2632,4.385,4.0314,4.385,4.0314s1.6974,11.1039,5.5166,15.206c1.8389,1.8389,18.7423,2.5461,18.7423,2.5461l0.1415,14.711 c0,0-8.9115,0.5658-18.8131,3.8899c-9.9016,3.3241-16.6205,8.2042-22.9859,19.4496s-12.5185,34.0898-12.5185,34.0898 l-16.0547-20.6519l0.4008-117.0983c0,0,12.3534,0.4715,21.5006-11.599s6.0353-26.6872-0.943-35.08s-16.9742-12.7306-30.6478-8.6757 S192.326,46.2359,192.326,46.2359l-49.8852-0.5658c0,0,0.3301-2.6876-1.6031-4.385c-1.9332-1.6974-16.2669-0.7544-16.2669-0.7544 l-13.8151,0.2358c0,0-3.0176-0.0472-3.2062,5.0923c-3.5834,0.0472-47.7163,0-47.7163,0l-23.6696,0.2829l-0.1414,161.3726 l-18.2472,0.4951l-0.1415,34.7263v30.0584c0,0,0.5658,8.4164,9.9016,8.4164s10.9625,0.2122,10.9625,0.2122l94.8432-0.0707 l-12.8721,16.4084l1.4145,2.1925l-3.5363,4.1728l0.778,2.0511c0,0-12.7306,13.0135-16.6913,22.6322 c-2.051,5.2337-1.3438,12.4477-1.3438,12.4477l-0.2829,11.6698l2.1925,0.1414l0.2829-20.5105c0,0,2.2632-6.0824,7.214-12.5892 c4.9508-6.5068,10.326-12.377,10.326-12.377l1.1316,0.8487l4.7386-3.6777l2.051,1.556l11.4576-8.6285l0.2122,48.8008 c0,0-13.155,0.2829-16.6206,0.2829c-3.4656,0-5.7995,2.6876-5.7288,6.1531C121.5295,352.9264,166.2046,352.9971,166.2046,352.9971z M112.3587,2.9989c0,1.5624-1.2666,2.829-2.829,2.829s-2.829-1.2666-2.829-2.829s1.2666-2.829,2.829-2.829 S112.3587,1.4365,112.3587,2.9989z M143.3602,3.0225c0,1.5624-1.2666,2.829-2.829,2.829s-2.829-1.2666-2.829-2.829 s1.2666-2.829,2.829-2.829S143.3602,1.4601,143.3602,3.0225z" fill="#f5f6f7"/></g><g id="change2_1"><path d="M38.7096,337.7203l-19.7945,12.9305c-0.2619,0.1711-0.6091-0.0168-0.6091-0.3296v-25.8609 c0-0.3128,0.3472-0.5007,0.6091-0.3297l19.7945,12.9304C38.9475,337.2165,38.9475,337.565,38.7096,337.7203z M96.8462,150.2971 c0-10.2339-8.2962-18.5301-18.5301-18.5301s-18.5302,8.2962-18.5302,18.5301s8.2962,18.5302,18.5302,18.5302 S96.8462,160.531,96.8462,150.2971z M218.9189,46.7546v14.2159l-5.8702-1.1316h-0.4951l0.778,15.3475l-4.8093-0.1414l0.0707-16.6206 l-1.3438-0.2829l-0.1414-8.9822l4.0314,0.0707l0.4243-1.2023L218.9189,46.7546z M314.5401,159.1142l-24.5182-0.0943l-0.3772,7.6384 c0,0-10.3731,0.2829-12.9193,2.5461c-0.1886,5.6581,0.1886,90.4346,0.1886,90.4346l45.1702-0.3772l0.1886-91.7549 c0,0-4.055-0.613-7.5912-0.5187C314.823,162.179,314.5401,159.1142,314.5401,159.1142z M134.2601,302.0746l-9.8309-9.4772 l-4.1728,5.163l8.9115,8.5578L134.2601,302.0746z" fill="#ccf3e5"/></g><g id="change3_1"><path d="M355.8027,180.9746c-10.4381-13.8995-36.5295-14.4815-40.6198-14.4885l0.0447-17.0076 c0.3622-0.1805,1.0458-0.5377,1.9478-1.0762c-0.8594,2.2639-0.493,5.0701,1.1116,7.2652c1.5635,2.1401,3.8633,3.2578,6.5049,3.2578 c1.249,0,2.5742-0.25,3.9346-0.7603c14.7129-5.7764,16.0947-15.6108,16.168-18.4873c0.1006-3.9619-1.5176-7.2827-4.1211-8.4604 c-4.3122-1.9503-7.4104-0.9257-8.942-0.0829c0.5037-1.6016,0.8675-3.3051,1.0298-5.1227 c0.8711-9.7588,0.8184-20.8223-6.1777-28.8862c-5.4072-6.2334-14.3184-9.7188-26.4863-10.3589 c-16.0176-0.8438-26.7578,1.7793-32.8359,8.0151c-4.4131,4.5288-7.1563,11.812-6.8252,18.1235 c0.2158,4.1318,1.6836,7.5298,4.251,9.8643c-1.0732,1.1846-4.208,4.7886-4.5273,6.8184c-0.3652,2.3291,3.5195,4.4966,4.6514,5.0747 c0.5771,5.6758,2.1416,10.3613,4.7793,14.3179c2.207,3.3115,16.2051,3.4282,19.4844,3.4126v6.5236 c-0.0154,0.0482-0.0303,0.0969-0.0303,0.1502s0.0148,0.1021,0.0303,0.1502v7.2443c-1.5151,0.0735-6.4667,0.418-12.5021,1.8742 c-0.0145-0.0013-0.027-0.0084-0.0419-0.0084c-0.0953,0-0.1793,0.0338-0.2551,0.08c-7.5846,1.8657-16.7805,5.4909-22.9646,12.5382 c-10.8193,12.3286-17.0234,36.8955-18.2686,42.2031l-15.1582-19.1259V86.6831c15.3111-0.7544,27.5361-13.4471,27.5361-28.9424 c0-15.979-13-28.979-28.9785-28.979c-11.625,0-21.6669,6.8835-26.28,16.7856h-49.4387v-1.708c0-2.1001-1.709-3.8086-3.8086-3.8086 H126.144l13.352-34.1391c0.3311,0.1237,0.685,0.2006,1.0587,0.2006c1.6797,0,3.0459-1.3667,3.0459-3.0464S142.2344,0,140.5547,0 s-3.0459,1.3662-3.0459,3.0459c0,0.9423,0.439,1.7755,1.113,2.3347l-13.5325,34.6005L111.5569,5.3806 c0.674-0.5593,1.113-1.3925,1.113-2.3347c0-1.6797-1.3662-3.0459-3.0459-3.0459s-3.0459,1.3662-3.0459,3.0459 s1.3662,3.0464,3.0459,3.0464c0.3737,0,0.7276-0.077,1.0587-0.2006l13.352,34.1391H110.834c-2.0996,0-3.8086,1.7085-3.8086,3.8086 v1.708H35.6636v161.8203H17.1807v64.8135c0,5.3711,4.3701,9.7412,9.7412,9.7412c0.0638,0,0.1255-0.0084,0.189-0.0096v0.0096 h105.1148l-8.1916,10.1024c-0.005,0.0046-0.0116,0.006-0.0165,0.0109c-0.0153,0.0153-0.0215,0.0352-0.0345,0.0519l-4.2878,5.288 c-0.1611,0.1982-0.1455,0.4873,0.0352,0.668l1.6608,1.6606l-3.6998,4.563c-0.1611,0.1982-0.1455,0.4873,0.0352,0.668l0.997,0.997 c-0.9225,0.9601-18.2519,19.1273-18.2519,28.1104v19.4541h1.6036c0.0017,0,0.0031,0.001,0.0048,0.001h247.8232 c0.2207,0,0.415-0.1445,0.4785-0.3564c0.7552-2.5164,1.9242-8.4326,2.2101-9.8981l4.2205,1.4567 c0.0537,0.0186,0.1094,0.0273,0.1631,0.0273c0.2051,0,0.3965-0.127,0.4697-0.3301c0.8682-2.3945,21.248-58.8555,21.248-77.4023 C378.6934,248.2271,368.3301,197.6553,355.8027,180.9746z M138.5088,3.0459c0-1.1279,0.918-2.0459,2.0459-2.0459 s2.0459,0.918,2.0459,2.0459c0,1.1284-0.918,2.0464-2.0459,2.0464S138.5088,4.1743,138.5088,3.0459z M109.624,5.0923 c-1.1279,0-2.0459-0.918-2.0459-2.0464c0-1.1279,0.918-2.0459,2.0459-2.0459s2.0459,0.918,2.0459,2.0459 C111.6699,4.1743,110.752,5.0923,109.624,5.0923z M340.3613,132.1284c2.2021,0.9961,3.6221,4.0195,3.5332,7.5239 c-0.0693,2.7207-1.3926,12.0303-15.5264,17.5791c-3.7822,1.4204-7.251,0.6147-9.2744-2.1538 c-1.7559-2.4023-1.8604-5.6313-0.248-7.6772c0.0198-0.0251,0.0272-0.0547,0.0414-0.082c3.8779-2.6016,9.6003-7.436,12.4021-14.6288 c0.0483-0.0212,0.0963-0.0447,0.1375-0.0822C331.5625,132.4839,334.8154,129.6191,340.3613,132.1284z M261.5342,112.853 c-0.3164-6.0503,2.3125-13.0317,6.5439-17.373c5.7832-5.9341,16.5654-8.5317,32.0664-7.7144 c11.8857,0.625,20.5615,3.9946,25.7842,10.0151c6.751,7.7813,6.7891,18.5928,5.9365,28.1421 c-1.2972,14.5224-15.4935,21.8845-17.1748,22.7065c-5.3754-1.5017-9.3402-7.6539-10.7021-10.041 c5.9492,1.146,10.0039-1.3916,11.8604-4.2842c2.0059-3.126,1.7988-6.9907-0.5283-9.8467 c-4.8086-5.9014-11.3467-2.6733-12.4102-2.0903c-1.9209-0.167-22.6055-2.4917-29.8252-24.7881 c-0.0566-0.1758-0.2061-0.3062-0.3877-0.3384c-0.1807-0.0322-0.3672,0.0386-0.4814,0.1831 c-1.4659,1.8664-5.6548,12.5441-7.0882,24.272C262.9707,119.5538,261.727,116.5245,261.5342,112.853z M270.5225,148.4258 c-2.5859-3.8799-4.1045-8.5034-4.6426-14.1348c-0.0166-0.1743-0.124-0.3271-0.2813-0.4033 c-1.7979-0.8657-4.5684-2.7573-4.3506-4.145c0.2734-1.7402,3.4268-5.4048,4.6191-6.6699c0.0145-0.0153,0.0202-0.0358,0.0325-0.0527 c0.02-0.0269,0.0377-0.0535,0.0519-0.0844c0.0142-0.0309,0.0227-0.062,0.0303-0.0952c0.0046-0.0197,0.0159-0.0362,0.0181-0.0568 c1.1582-10.7007,4.7051-20.6289,6.4727-23.8926c8.0566,22.981,30.2969,24.4731,30.5244,24.4854 c0.0918,0.0054,0.2012-0.02,0.2891-0.0728c0.2656-0.1636,6.5938-3.9385,11.2588,1.7856c2.0488,2.5142,2.2305,5.9194,0.4619,8.6748 c-1.7783,2.772-5.8291,5.1748-11.8564,3.6094c-0.1904-0.0498-0.3896,0.0161-0.5137,0.1675 c-0.123,0.1514-0.1475,0.3608-0.0615,0.5361c0.1904,0.3882,4.6563,9.375,11.6523,11.4673l-0.0237,9.0225h-24.029v-6.6782 c0-0.1338-0.0537-0.2617-0.1484-0.356c-0.0938-0.0923-0.2197-0.144-0.3516-0.144c-0.002,0-0.0039,0-0.0068,0 C284.9287,151.4507,272.2656,151.0396,270.5225,148.4258z M277.1309,169.248c6.9682-1.6539,12.441-1.8043,12.5537-1.8066 c0.0322-0.0007,0.06-0.0138,0.0904-0.0202c0.0334-0.007,0.0685-0.0088,0.0991-0.0221c0.0283-0.0123,0.0499-0.0336,0.0751-0.0507 c0.028-0.0189,0.0586-0.0337,0.0822-0.0577c0.0231-0.0235,0.0369-0.054,0.055-0.0816c0.0169-0.0259,0.0381-0.0486,0.0501-0.0776 c0.0135-0.0327,0.015-0.0698,0.0212-0.1054c0.0051-0.0286,0.0171-0.0546,0.0171-0.0847v-7.3745h24.0264l-0.0195,7.4199 c0,0.0016,0.0009,0.0029,0.0009,0.0045c0,0.0017-0.0009,0.0031-0.0009,0.0048c0.0002,0.0151,0.0086,0.0279,0.0103,0.0427 c0.02,0.191,0.1417,0.3491,0.3155,0.4142c0.0158,0.0065,0.0325,0.0051,0.0486,0.0099c0.0408,0.0109,0.0804,0.0253,0.1246,0.0254 h0.001c0.0013,0,0.0024-0.0008,0.0038-0.0008c0.0013-0.0001,0.0027,0.0009,0.004,0.0008c0.0873-0.003,2.9095-0.0301,7.083,0.3477 v91.02h-44.6416V169.248z M235.0068,224.5869c0.0957,0.1211,0.2412,0.1895,0.3916,0.1895c0.0381,0,0.0762-0.0044,0.1143-0.0132 c0.1885-0.0439,0.334-0.1929,0.375-0.3823c0.0615-0.29,6.3369-29.1719,18.2754-42.7764c5.8955-6.7185,14.633-10.2537,21.9678-12.113 v150.4719h-18.6377v-54.7607c0-0.2031-0.123-0.3867-0.3115-0.4629c-0.1885-0.0781-0.4043-0.0322-0.5469,0.1143 c-0.0684,0.0693-6.9521,7.0156-16.2393,7.0156c-12.8497,0-25.3085-17.6279-34.0605-33.8683v-0.287h-0.1537 c-6.652-12.3928-11.1309-23.9109-11.9537-26.0767l19.6102-13.7604L235.0068,224.5869z M50.4551,267.6265v-40.5869H199.653 c1.6379,3.5322,3.5475,7.4232,5.682,11.4001v29.1868h-39.7432v0.1202c-0.6765-1.3458-1.5601-2.5944-2.6563-3.6905 c-5.5527-5.5527-14.5898-5.5527-20.1426,0c-1.0946,1.0946-1.9865,2.355-2.6631,3.719v-0.1487H50.4551z M167.1074,274.1284 c0.0005-1.9209-0.3792-3.7823-1.0992-5.502h40.3267v-28.346c3.6739,6.6648,7.9585,13.4487,12.6494,19.091v13.8468 c0,4.248-3.4561,7.7041-7.7041,7.7041h-45.8956C166.5071,278.8604,167.1074,276.5411,167.1074,274.1284z M185.6963,182.7944 c-0.0469-0.0439-4.7578-4.4219-6.8223-6.835c-0.3291-0.3853-0.6572-0.7754-0.9834-1.1636c-2.5271-3.0045-4.917-5.8532-6.9223-5.2872 c-0.6132-0.9057-2.3195-3.5766-2.4859-5.4823c-0.083-0.9526,0.2578-1.7285,0.8906-2.0244c0.7373-0.3438,1.7451,0.0127,2.6953,0.9575 c0.9082,0.9023,1.8779,2.1421,3.002,3.5776c1.3818,1.7651,2.9473,3.7656,4.8311,5.6831c2.0547,2.0918,8.3926,8.1924,8.4561,8.2539 c0.0967,0.0933,0.2217,0.1396,0.3467,0.1396c0.1309,0,0.2617-0.0513,0.3604-0.1533c0.1914-0.1987,0.1855-0.5156-0.0137-0.707 c-0.0635-0.061-6.3906-6.1519-8.4365-8.2344c-1.8438-1.877-3.3916-3.854-4.7568-5.5981c-1.1436-1.4619-2.1318-2.7241-3.084-3.6704 c-0.2572-0.2557-0.5222-0.468-0.7894-0.6541c-0.2195-0.5355-1.0031-2.708,0.2933-3.7448c0.2959-0.2373,0.6211-0.3271,1.0146-0.2715 c0.8986,0.1279,2.5396,1.1012,5.2891,4.8979c0.0046,0.0156,0.008,0.0362,0.0127,0.0513c0.038,0.1195,0.1202,0.21,0.2191,0.2708 c0.0402,0.0566,0.0782,0.1075,0.1188,0.1652c4.4648,6.3398,8.627,10.124,13.4512,14.5098l0.667-0.7446 c-4.7744-4.3413-8.8984-8.0908-13.2998-14.3413c-0.084-0.1193-0.1628-0.2208-0.2458-0.3363 c-0.1201-0.5207-0.3597-2.0836,0.9079-2.7814c1.3525-0.7456,3.2354,1.1094,5.6475,4.1211c3.9277,4.9009,6.8516,7.8916,6.8848,7.9263 c2.6978,2.6794,5.5773,5.0174,8.5882,6.9846c0.0086,0.0064,0.0176,0.0112,0.0266,0.0169c0.8943,0.5836,1.7989,1.1382,2.7153,1.6547 c0.0771,0.0439,0.1611,0.0645,0.2451,0.0645c0.1738,0,0.3438-0.0913,0.4355-0.2544c0.1357-0.2407,0.0508-0.5454-0.1904-0.6812 c-0.8661-0.4882-1.7211-1.0129-2.5674-1.5624c-0.2052-0.3621-0.947-1.769-1.3691-3.8565l-0.1074-0.5073 c-0.4209-1.9438-1.124-5.1973,1.208-7.0615c0.3877-0.3096,0.6494-0.2788,0.8105-0.2285c1.498,0.4692,2.8818,5.1162,3.7969,8.1909 l0.1016,0.3369c0.043,0.123,1.0986,3.0435,3.499,5.7856c2.3486,2.6841,4.0449,4.6235,3.6572,8.6206 c-0.0742,0.7686-0.1621,1.4653-0.2451,2.1255c-0.2477,1.9663-0.458,3.683-0.1458,6.0137l-12.8387,9.0089 c-0.7573-0.7973-2.3656-2.0722-4.205-3.5284c-1.9736-1.5625-4.21-3.334-5.5928-4.6904c-1.1113-1.0903-8.8135-8.7368-11.332-11.4209 c-2.0576-2.1943-4.3467-4.7456-5.7119-7.0322c-2.5557-4.2773-3.5938-6.832-3.2676-8.0405c0.084-0.3125,0.2598-0.5288,0.5703-0.7002 c1.3564-0.7495,3.8779,2.2412,6.0996,4.8823c0.3281,0.3901,0.6582,0.7827,0.9893,1.1699c2.1016,2.4575,6.707,6.7373,6.9023,6.9185 c0.2012,0.188,0.5176,0.1763,0.7061-0.0264S185.8994,182.9824,185.6963,182.7944z M200.0242,176.0464h0.4241 c0.0506,0.1429,0.1003,0.2855,0.1504,0.4151C200.4062,176.3256,200.2155,176.1854,200.0242,176.0464z M218.542,29.7617 c15.4277,0,27.9785,12.5513,27.9785,27.979s-12.5508,27.979-27.9785,27.979s-27.9795-12.5513-27.9795-27.979 S203.1143,29.7617,218.542,29.7617z M205.335,83.5221v26.5272H50.4551V61.541h139.3646 C191.0829,71.1363,197.0546,79.2631,205.335,83.5221z M26.9219,280.9224c-4.8198,0-8.7412-3.9209-8.7412-8.7412v-63.8135h17.4829 v63.8135C35.6636,277.0015,31.7422,280.9224,26.9219,280.9224z M31.1936,280.9224c3.2333-1.5867,5.47-4.9035,5.47-8.7412V46.5474 h70.8618h34.7979h49.4903c-1.4485,3.4457-2.251,7.2274-2.251,11.1934c0,0.9449,0.049,1.8783,0.1378,2.8003H49.4551v50.5083H206.335 v-27.035c3.7126,1.7319,7.8473,2.7054,12.207,2.7054c0.1484,0,0.2946-0.009,0.4424-0.0112v116.0522l-4.5723-5.769 c-0.3291-2.2881-0.126-3.895,0.1289-5.9189c0.084-0.6699,0.1738-1.376,0.249-2.1548c0.4287-4.4268-1.4814-6.6108-3.9111-9.3872 c-2.2598-2.5811-3.2891-5.4224-3.291-5.4258l-0.0928-0.3115c-1.3887-4.6641-2.5986-8.2778-4.457-8.8599 c-0.4023-0.1274-1.0322-0.1592-1.7344,0.4014c-2.8154,2.251-1.999,6.0259-1.5605,8.0542l0.1045,0.4941 c0.0844,0.4177,0.1826,0.7991,0.2847,1.1631h-1.4396c-1.738-1.3503-3.4227-2.8275-5.0385-4.4326 c-0.0276-0.0276-2.5934-2.6533-6.1422-7.0151h18.3228v-1h-19.1306c-2.3484-2.9175-4.6317-5.3857-6.7747-4.2031 c-0.9642,0.5307-1.3575,1.4086-1.4744,2.2615c-1.9874-2.5224-3.6431-3.8707-5.0227-4.0667c-0.667-0.0938-1.2637,0.0674-1.7803,0.48 c-1.3311,1.0655-1.2007,2.7789-0.916,3.9166c-0.6292-0.1734-1.2423-0.1461-1.7872,0.1093 c-0.6151,0.2879-1.0587,0.8233-1.2919,1.5024h-47.7549v1h47.5709c-0.0062,0.1674-0.0023,0.3391,0.0131,0.5146 c0.1848,2.1125,1.9178,4.8672,2.6105,5.894c-0.2929,0.2671-0.5012,0.5952-0.6075,0.9898c-0.2426,0.8992,0.0228,2.1979,0.8353,4.0493 h-50.4222v1h50.8901c0.5323,1.0845,1.2061,2.3167,2.0708,3.7642c1.415,2.3682,3.7471,4.9707,5.8428,7.2041 c0.5848,0.6232,1.4536,1.5182,2.4479,2.5303H49.9551v1h132.1841c3.1943,3.2324,7.1535,7.1608,7.9263,7.9199 c0.9797,0.9605,2.3577,2.1081,3.771,3.2451H49.9551v1h145.1333c0.2184,0.1733,0.4362,0.3459,0.6499,0.5151 c1.6677,1.3208,3.2522,2.5759,3.9985,3.3254l-6.4009,4.4915c-0.1855,0.1304-0.2607,0.3691-0.1816,0.582 c0.0901,0.2449,0.3844,1.0352,0.8598,2.2505H49.9551v1h144.4536c1.0336,2.5987,2.6635,6.5373,4.7838,11.165H49.4551v42.5869h90.2986 c-0.7409,1.776-1.1185,3.6979-1.0975,5.6584c-0.0076,0.0004-0.0148-0.0041-0.0224-0.0032 c-0.1406,0.0068-0.2725,0.0742-0.3623,0.1846l-5.2842,6.5167v-0.0607H31.1936z M138.6992,275.5269l12.3664,12.3674 c0.011,0.062,0.0323,0.1182,0.0642,0.1704l-16.7742,13.602l-9.3064-9.3064L138.6992,275.5269z M143.1318,295.8375v50.3417h-2.3242 v-48.4571L143.1318,295.8375z M120.7559,297.6548l3.6601-4.5137l9.1588,9.1588l-4.5132,3.6597L120.7559,297.6548z M122.1021,300.4149l4.1986,4.1982l-4.1318,3.3503l-3.417-3.417L122.1021,300.4149z M102.6885,352.4966h-1.2168v-18.4541 c0-8.5551,16.9357-26.3364,17.9592-27.4031l0.8599,0.8599c-4.9446,5.1509-17.6023,19.8063-17.6023,26.5432V352.4966z M103.6885,352.4976v-18.4551c0-5.6913,10.5895-18.8348,17.3097-25.8358l0.7821,0.7821c0.0967,0.0967,0.2246,0.1465,0.3535,0.1465 c0.1113,0,0.2227-0.0371,0.3145-0.1113l4.5634-3.7001l1.6612,1.661c0.0967,0.0967,0.2256,0.1465,0.3535,0.1465 c0.1113,0,0.2227-0.0371,0.3145-0.1113l10.4668-8.4871v47.74H123.958c-3.4387,0-6.236,2.7896-6.2515,6.2246H103.6885z M118.7079,352.4976c0.0157-2.8831,2.3633-5.2246,5.2501-5.2246h36.2109c2.8868,0,5.2344,2.3415,5.2501,5.2246H118.7079z M160.1689,346.2729h-16.0371v-51.2463l8.1172-6.5818c0.0334-0.0272,0.0544-0.0642,0.0795-0.0982 c0.181,0.007,0.363,0.0259,0.5436,0.0259c3.7656,0,7.374-1.4824,10.0635-4.1729c0.7018-0.7018,1.3165-1.4666,1.849-2.2773h46.4957 c4.7998,0,8.7041-3.9043,8.7041-8.7041v-12.6691c6.2758,7.2368,13.236,12.3204,20.4111,12.3204 c7.874,0,13.9287-4.6084,16.0977-6.5156v54.1094c0,0.2764,0.2236,0.5,0.5,0.5h3.5565c-0.204,2.2825-1.6681,19.0714-1.6753,31.5342 h-92.4539C166.405,349.0625,163.6076,346.2729,160.1689,346.2729z M322.2559,352.4976h-41.0212l11.4275-19.7627l30.3253,16.5529 c-0.3159,1.0822-0.572,2.1175-0.7355,3.0575C322.2428,352.3975,322.2491,352.4478,322.2559,352.4976z M349.5273,352.4976h-26.2873 c0.9769-5.5778,5.3774-14.8637,6.4868-17.1461l21.9101,7.562C351.4247,344.0042,350.2903,349.7794,349.5273,352.4976z M356.6719,343.5933l-26.7053-9.2165c-0.0471-0.088-0.1127-0.1669-0.2088-0.2151c-0.1385-0.0693-0.2911-0.0614-0.4229-0.0029 l-3.707-1.2794l18.6367-60.5723c1.0645-3.46,1.252-7.1631,0.542-10.709l-5.1641-25.8208c-0.0547-0.2715-0.3301-0.4487-0.5879-0.3921 c-0.2715,0.0542-0.4473,0.3174-0.3926,0.5884l5.1641,25.8208c0.6777,3.3838,0.499,6.917-0.5166,10.2178l-14.7538,47.9512h-5.7833 V167.933c9.5368,0.9665,25.0052,4.0201,32.2314,13.6422c12.1865,16.228,22.6895,67.2417,22.6895,85.4194 C377.6934,284.4917,358.665,338.0356,356.6719,343.5933z M78.333,169.979c10.6709,0,19.3525-8.6816,19.3525-19.3525 s-8.6816-19.3521-19.3525-19.3521s-19.3521,8.6812-19.3521,19.3521S67.6621,169.979,78.333,169.979z M84.106,151.1265h6.2553 c-0.0627,3.5231-0.7733,6.8008-1.9665,9.5616c-1.6349,0.7067-3.4544,1.2378-5.3957,1.5737 C83.7007,158.9809,84.0763,155.0202,84.106,151.1265z M81.9276,162.4363c-1.1632,0.1523-2.3642,0.2351-3.5945,0.2351 c-1.2304,0-2.4313-0.0829-3.5945-0.2352c-0.6868-2.9892-1.142-6.8621-1.1746-11.3098h9.5382 C83.0695,155.5742,82.6144,159.4471,81.9276,162.4363z M84.106,150.1265c-0.0297-3.8936-0.4052-7.8541-1.1068-11.1348 c1.9413,0.3358,3.7607,0.867,5.3957,1.5737c1.1932,2.7607,1.9037,6.0384,1.9664,9.5612H84.106z M83.1021,150.1265h-9.5382 c0.0326-4.4474,0.4877-8.3201,1.1746-11.3093c1.1632-0.1523,2.3641-0.2352,3.5945-0.2352c1.2303,0,2.4313,0.0829,3.5945,0.2352 C82.6144,141.8063,83.0695,145.679,83.1021,150.1265z M72.56,150.1265h-6.2548c0.0627-3.5228,0.7733-6.8006,1.9665-9.5613 c1.6348-0.7065,3.454-1.2377,5.3951-1.5735C72.9652,142.2724,72.5897,146.2329,72.56,150.1265z M72.56,151.1265 c0.0297,3.8937,0.4053,7.8545,1.1069,11.1353c-1.941-0.3358-3.7604-0.8669-5.3951-1.5735 c-1.1932-2.7609-1.9038-6.0387-1.9666-9.5618H72.56z M73.9096,163.3141c0.5662,2.288,1.3049,4.1683,2.2097,5.3405 c-2.9079-0.8276-5.4473-3.2482-7.2179-6.648C70.4517,162.5928,72.1346,163.0328,73.9096,163.3141z M78.333,168.979 c-1.1733,0-2.4133-2.0462-3.337-5.5155c1.0863,0.1281,2.1971,0.2079,3.337,0.2079s2.2507-0.0798,3.337-0.2079 C80.7463,166.9328,79.5063,168.979,78.333,168.979z M82.7564,163.3141c1.7751-0.2813,3.4582-0.7215,5.0087-1.3077 c-1.7707,3.4-4.3102,5.8206-7.2184,6.6482C81.4515,167.4825,82.1902,165.6022,82.7564,163.3141z M83.8768,168.1186 c2.1332-1.4943,3.9587-3.8026,5.2697-6.6786c2.876-1.311,5.1843-3.1365,6.6786-5.2697 C94.0248,161.8373,89.5438,166.3183,83.8768,168.1186z M89.713,160.0584c1.0043-2.6559,1.5917-5.6959,1.6478-8.9319h5.2861 C96.4192,154.7418,93.7657,157.9477,89.713,160.0584z M91.3608,150.1265c-0.0561-3.2359-0.6435-6.2758-1.6476-8.9315 c4.0526,2.1107,6.706,5.3164,6.9338,8.9315H91.3608z M95.825,145.0826c-1.4943-2.1331-3.8024-3.9584-6.6783-5.2693 c-1.3109-2.8759-3.1364-5.184-5.2695-6.6783C89.5438,134.9353,94.0246,139.416,95.825,145.0826z M87.7651,139.2469 c-1.5505-0.5862-3.2335-1.0263-5.0087-1.3076c-0.5662-2.2881-1.3049-4.1683-2.2097-5.3405 C83.4548,133.4264,85.9944,135.847,87.7651,139.2469z M78.333,132.2744c1.1733,0,2.4133,2.0462,3.337,5.5155 c-1.0863-0.1281-2.1971-0.2079-3.337-0.2079s-2.2507,0.0798-3.337,0.2079C75.9197,134.3206,77.1597,132.2744,78.333,132.2744z M73.9096,137.9393c-1.775,0.2813-3.4578,0.7213-5.0081,1.3074c1.7706-3.3997,4.3099-5.8203,7.2178-6.6479 C75.2145,133.771,74.4758,135.6512,73.9096,137.9393z M72.7889,133.1349c-2.1331,1.4943-3.9584,3.8024-5.2692,6.6783 c-2.8759,1.3109-5.184,3.1362-6.6783,5.2693C62.6417,139.416,67.1224,134.9353,72.7889,133.1349z M66.9532,141.1949 c-1.0041,2.6558-1.5915,5.6956-1.6476,8.9315h-5.2861C60.2473,146.5114,62.9006,143.3056,66.9532,141.1949z M65.3057,151.1265 c0.0561,3.2361,0.6436,6.2761,1.6478,8.9321c-4.0527-2.1107-6.7061-5.3167-6.9339-8.9321H65.3057z M67.5198,161.4401 c1.3109,2.876,3.1363,5.1842,5.2695,6.6785c-5.6668-1.8003-10.1477-6.2812-11.948-11.9482 C62.3356,158.3036,64.6439,160.129,67.5198,161.4401z M93.3711,91.6777l-5.9844-20.8335h-5.1865v31.0288h4.6104V82.0146 l6.2051,19.8584h4.9648V70.8442h-4.6094V91.6777z M107.5518,101.873h13.3418v-4.4326H112.25v-9.0869h6.8711v-4.4326H112.25v-8.644 h8.6436v-4.4326h-13.3418V101.873z M192.2715,187.6797c1.1494,0.2993,2.2217,0.4995,3.167,0.6763 c2.6611,0.4971,4.584,0.856,6.2246,2.8721c1.5928,1.9556,1.2461,4.251,1.2432,4.2739c-0.0439,0.272,0.1406,0.5288,0.4131,0.5732 c0.0273,0.0044,0.0547,0.0068,0.0811,0.0068c0.2402,0,0.4512-0.1729,0.4922-0.4175c0.0186-0.1113,0.4316-2.7524-1.4541-5.0679 c-1.8721-2.3003-4.0537-2.708-6.8164-3.2236c-0.9746-0.1821-1.9834-0.3706-3.0986-0.6611c-0.2705-0.0698-0.541,0.0913-0.6094,0.3579 C191.8438,187.3369,192.0039,187.6104,192.2715,187.6797z M0,360.2339h54.9312v-45.6855H0V360.2339z M1,315.5483h52.9312v43.6855H1 V315.5483z M107.1455,125.3262H49.4551v50.7905h57.6904V125.3262z M106.1455,175.1167H50.4551v-48.7905h55.6904V175.1167z M19.1885,323.7114c-0.2749-0.1797-0.625-0.1943-0.9136-0.0371c-0.2891,0.1563-0.4688,0.458-0.4688,0.7861v25.8604 c0,0.3291,0.1792,0.6299,0.4683,0.7861c0.1333,0.0723,0.2793,0.1084,0.4253,0.1084c0.1704,0,0.3408-0.0488,0.4888-0.1455 l19.7944-12.9307c0.2534-0.166,0.4048-0.4453,0.4048-0.748c0-0.3037-0.1514-0.583-0.4048-0.749L19.1885,323.7114z M18.8062,350.1245 v-25.4678l19.4937,12.7344L18.8062,350.1245z M164.46,77.8037c0-1.9507,0.9307-2.9702,2.5713-2.9702 c1.6396,0,2.5713,1.2412,2.5713,3.6348v0.8867l4.5205-0.4873v-0.7983c0-4.6543-2.6592-7.6685-7.1357-7.6685 c-4.4775,0-7.1367,3.0142-7.1367,7.6245c0,3.4131,1.3291,5.8066,5.9834,10.1948c3.502,3.3247,4.2998,4.7432,4.2998,6.6934 c0,1.8174-1.1523,2.9702-3.0137,2.9702c-1.8623,0-3.0146-1.3745-3.0146-3.6348v-1.1528l-4.5215,0.4878v1.1079 c0,4.4331,3.1035,7.6245,7.5801,7.6245c4.4775,0,7.5801-3.1914,7.5801-7.6245c0-3.4131-1.4629-5.6738-5.9844-10.1948 C165.4355,81.1724,164.46,79.7539,164.46,77.8037z M206.7767,58.4907c0.0908,0.0938,0.217,0.1529,0.358,0.1529h0.9736v16.4341 c0,0.2764,0.2236,0.5,0.5,0.5h4.8125c0.1367,0,0.2686-0.0562,0.3623-0.1558c0.0947-0.0991,0.1445-0.2329,0.1367-0.3701 l-0.577-11.2026h1.4529c0.2764,0,0.5-0.2236,0.5-0.5v-2.6039l10.0928,1.7973l4.2959,3.3755 c0.2139,0.168,0.4707,0.2539,0.7295,0.2539c0.1758,0,0.3535-0.0396,0.5205-0.1206c0.4111-0.2002,0.666-0.6079,0.666-1.0649V42.3628 c0-0.457-0.2549-0.8647-0.666-1.0649c-0.4121-0.1992-0.8906-0.1499-1.25,0.1338l-4.2959,3.375l-14.2168,2.5317 c-0.2383,0.0425-0.4121,0.25-0.4121,0.4922v0.875h-3.625c-0.0226,0-0.0419,0.0099-0.0638,0.0129 c-0.0339,0.0043-0.0665,0.0085-0.0994,0.02c-0.0335,0.0117-0.0624,0.029-0.0922,0.0472c-0.0183,0.011-0.039,0.0151-0.0562,0.0288 c-0.0869,0.0688-2.125,1.7202-2.3135,4.3555c-0.1289,1.7988,0.6318,3.5874,2.2607,5.3164 C206.7723,58.4882,206.7749,58.4888,206.7767,58.4907z M214.2959,62.8491h-1.0045l-0.1279-2.4837l1.1323,0.2017V62.8491z M219.126,46.9376l6.5615-1.1686c0.0801-0.0142,0.1563-0.0483,0.2207-0.0991l4.3936-3.4517c0.0801-0.0635,0.1572-0.04,0.1953-0.021 s0.1035,0.0654,0.1035,0.1655v22.6235c0,0.1001-0.0654,0.1465-0.1035,0.1655c-0.0371,0.019-0.1143,0.043-0.1953-0.0205 l-4.3936-3.4521c-0.0645-0.0508-0.1406-0.085-0.2207-0.0991l-6.5615-1.1686V46.9376z M211.7598,48.2495l6.3662-1.1338v13.1177 l-6.3662-1.1338V48.2495z M211.1719,60.0107l0.9817,0.1748l0.741,14.3921h-3.7861V58.6436h1.6514v0.875 C210.7598,59.7607,210.9336,59.9683,211.1719,60.0107z M207.6348,49.7056h3.125v7.938h-3.125V49.7056z M206.6348,56.7475 c-0.8266-1.1677-1.2083-2.3394-1.1279-3.496c0.0817-1.1847,0.6328-2.1401,1.1279-2.7811V56.7475z M145.4922,91.811l-2.5713-20.9668 h-4.7871l-2.5713,20.9668l-2.5703-20.9668h-4.7432l4.5654,31.0288h5.1865l2.4824-20.4346l2.4814,20.4346h5.1865l4.5654-31.0288 h-4.6543L145.4922,91.811z M205.835,125.2554h-85.9326v1h85.9326V125.2554z M285.6934,133.9648 c-5.707,0.7222-10.9014,2.478-13.4902,3.4609c-0.5742,0.2178-0.9775,0.7114-1.0811,1.3203 c-0.1045,0.6201,0.1201,1.2314,0.6016,1.6343c3.0078,2.5195,5.502,3.3247,7.4619,3.3242c1.8506,0,3.2246-0.7173,4.1035-1.3872 c2.7607-2.1035,3.8369-6.0625,2.9219-8.0645C286.1201,134.0542,285.9072,133.9365,285.6934,133.9648z M282.6836,141.522 c-2.7158,2.0674-6.3799,1.3911-10.3174-1.9082c-0.2061-0.1729-0.3027-0.4346-0.2578-0.7012c0.0439-0.2588,0.208-0.46,0.4502-0.5522 c2.4863-0.9438,7.415-2.6128,12.8623-3.3511C285.8408,136.6128,284.9814,139.771,282.6836,141.522z M205.835,150.1509h-85.9326v1 h85.9326V150.1509z M205.835,137.7031h-85.9326v1h85.9326V137.7031z" fill="#0a0147"/></g></svg>