<?xml version="1.0" encoding="UTF-8" standalone="no"?><svg xmlns="http://www.w3.org/2000/svg" xmlns:xlink="http://www.w3.org/1999/xlink" fill="#000000" height="477" preserveAspectRatio="xMidYMid meet" version="1" viewBox="0.0 0.0 500.0 477.0" width="500" zoomAndPan="magnify"><g id="Illustration"><g id="change1_1"><path d="M468.2431946,477.031311H31.7568111c-3.0724506,0-5.5635529-2.4910889-5.5635529-5.5635376V32.8434448 c0-3.0724525,2.4911022-5.5635548,5.5635529-5.5635548h436.4863892c3.0724487,0,5.5635376,2.4911022,5.5635376,5.5635548 v438.6243286C473.8067322,474.5402222,471.3156433,477.031311,468.2431946,477.031311z M37.3203659,465.9042053h425.3592529 V38.4069977H37.3203659V465.9042053z" fill="#172627"/></g><g id="change1_2"><path d="M494.4364319,150.3952637H5.5635543C2.4911032,150.3952637,0,147.9041595,0,144.8317108 s2.4911032-5.5635529,5.5635543-5.5635529h488.8728638c3.0724792,0,5.5635681,2.4911041,5.5635681,5.5635529 S497.5089111,150.3952637,494.4364319,150.3952637z" fill="#172627"/></g><g id="change1_3"><path d="M387.832428,65.6868896c-3.0724487,0-5.5635376-2.4911041-5.5635376-5.5635567V5.5635543 C382.2688904,2.4911032,384.7599792,0,387.832428,0c3.0724792,0,5.5635681,2.4911032,5.5635681,5.5635543V60.123333 C393.3959961,63.1957855,390.9049072,65.6868896,387.832428,65.6868896z" fill="#172627"/></g><g id="change1_4"><path d="M295.0422363,65.6868896c-3.0724487,0-5.5635376-2.4911041-5.5635376-5.5635567V5.5635543 C289.4786987,2.4911032,291.9697876,0,295.0422363,0s5.5635681,2.4911032,5.5635681,5.5635543V60.123333 C300.6058044,63.1957855,298.1146851,65.6868896,295.0422363,65.6868896z" fill="#172627"/></g><g id="change1_5"><path d="M202.2493286,65.6868896c-3.0724487,0-5.5635529-2.4911041-5.5635529-5.5635567V5.5635543 C196.6857758,2.4911032,199.1768799,0,202.2493286,0s5.5635529,2.4911032,5.5635529,5.5635543V60.123333 C207.8128815,63.1957855,205.3217773,65.6868896,202.2493286,65.6868896z" fill="#172627"/></g><g id="change1_6"><path d="M109.4591293,65.6868896c-3.0724487,0-5.5635529-2.4911041-5.5635529-5.5635567V5.5635543 C103.8955765,2.4911032,106.3866806,0,109.4591293,0s5.5635529,2.4911032,5.5635529,5.5635543V60.123333 C115.0226822,63.1957855,112.5315781,65.6868896,109.4591293,65.6868896z" fill="#172627"/></g><g id="change2_1"><path d="M112.166 210.078H177.32V275.23199999999997H112.166z" fill="#ccf4e5"/></g><g id="change2_2"><path d="M322.679 210.078H387.83299999999997V275.23199999999997H322.679z" fill="#ccf4e5" transform="rotate(180 355.256 242.655)"/></g><g id="change2_3"><path d="M217.423 210.078H282.577V275.23199999999997H217.423z" fill="#ccf4e5"/></g><g id="change2_4"><path d="M112.166 325.79H177.32V390.944H112.166z" fill="#ccf4e5"/></g><g id="change2_5"><path d="M322.679 325.79H387.83299999999997V390.944H322.679z" fill="#ccf4e5" transform="rotate(180 355.256 358.367)"/></g><g id="change2_6"><path d="M217.423 325.79H282.577V390.944H217.423z" fill="#ccf4e5"/></g></g></svg>