<?xml version="1.0" encoding="UTF-8" standalone="no"?><svg xmlns="http://www.w3.org/2000/svg" xmlns:xlink="http://www.w3.org/1999/xlink" fill="#000000" height="399.1" preserveAspectRatio="xMidYMid meet" version="1" viewBox="-2.0 0.0 448.0 399.1" width="448" zoomAndPan="magnify"><g id="change1_1"><path d="M378.6469,134.0246c13.3549,53.9285,4.6235,102.4894-19.502,108.4639 c-4.9751,1.2321-10.2165,0.5524-15.5197-1.7687l0.0251,0.1014l-97.2369-15.9686c0,0-12.7715-26.7797-19.3519-53.3341 c-6.5726-26.5573-7.7744-56.2047-7.7744-56.2047l78.548-59.4999l0.0468,0.189c3.6071-4.5276,7.9256-7.5747,12.9007-8.8068 c11.6895-2.8948,24.8483,4.7396,36.8275,19.5139l0.0234,0.0406c3.6324-3.0657,8.3198-4.9207,13.4451-4.9207 c11.5252,0,20.8682,9.343,20.8682,20.8682c0,9.03-5.7463,16.6978-13.7729,19.6044l0.0583,0.101 C372.3079,112.1016,375.8506,122.7332,378.6469,134.0246z M58.0321,317.7767l-42.5532,0.3404c0,0-10.2128,46.6383-8.5107,80.3405 c31.1489,0,59.5745,0,59.5745,0s0.0851-20.0851-1.9574-39.4043C62.5427,339.7341,58.0321,317.7767,58.0321,317.7767z M28.5002,270.8405c-0.2553,1.2766-0.5532,1.8298,0,2.3405c0,0,4.8724-0.4894,6.4681-6.2979 c1.5958-5.8085-2.4255-8.2979-2.4893-15.1915c-0.0638-4.0212,1.0212-4.9787,1.0212-4.9787s2.1064,5.1702,7.6596,5.1702 c4.0212,0.0638,6.1915-2.0426,6.8936-6.2554c0.7021-4.2128,1.1489-9.7021,1.1489-9.7021s6.5106,1.4681,9.6383-0.2553 c1.6595-1.2128,3.6383-9.5107,3.6383-9.5107s2.2979-0.7021,2.6808-2.1064c0.3829-1.4042-2.6808-4.2766-2.6808-4.2766l-0.5107-2.7447 c0,0,2.6808-0.5745,2.5532-4.5638c0.2553,0.0958,1.3723,3.0958,0.9575,4.0851c0.8617,0.0958,2.1063-1.4681,2.2021-4.8511 c0.0958-3.3829-0.2872-9.9681-8.5425-13.4574c-8.2553-3.4894-20.4255-4.4681-29.2341,2.4255 c-8.8085,6.8936-8.7234,16.1702-6.8936,21.2766c1.8298,5.1064,4.2128,11.1915,7.1915,12.4681c0,0-6.7234-0.6808-10.2553,7.0638 s4.4255,18.766,5.3192,19.6596S29.4363,264.5001,28.5002,270.8405z M57.7768,267.3086l-13.617,10.9788l-0.9362,6.8085l3.9149,8.9362 l3.6595,0.8511l9.7021-6.6383l6.0425-2.7234l-0.2553-9.8723l3.3192-3.4042l-0.5958-4.5958L57.7768,267.3086z M81.3513,258.8831 l4.3404,0.7659c0,0-3.1489,6.4681-1.7021,10.8085l10.3404,5.0638c0,0,3.0213-3.9149,5.4042-6.2979 c2.383-2.383,5.3192-5.2341,5.3192-5.2341l6.6808,1.2766l8.5107-40.8511l-30.383-6.3829L81.3513,258.8831z M151.9896,229.7767 l10.8936-2.9788c0,0,4.7234-51.0638,10.5957-51.0638c5.8724,0,8.1064-4.0851,8.1064-7.9149c0-3.8298,0-39.5745,0-39.5745 l-0.1489-34.5107l10.2553-10.5957c0,0,11.2766-11.4894,14.5958-15.4043c3.3192-3.9149,10.0851-13.0638,10.0851-13.0638 l12.2553-18.766c0,0,7.3192-13.6595,8.1277-16.5532s0.6808-5.5319-1.3192-6.4681c1.9575-2.9362-0.8511-4.0426-1.9575-3.4043 c1.3617-2.4255-1.3192-3.5745-2.8936-3.2766c0.4681-2.4681-2.1276-2.9787-4.0851-1.234s-4.2128,5.1064-4.2128,5.1064l-2.3405,2.9787 c0,0-0.0425-7.617-1.3192-9.8723c-1.2766-2.2553-3.234-2.8511-3.8298-2c-0.5957,0.8511-0.2553,6.383-0.8511,10.2128 c-0.5957,3.8298-3.234,9.5319-3.234,11.0638c0,1.5319,0,5.617-0.5106,6.5532c-6.1277,8.0851-28.5107,31.8298-28.5107,31.8298 l-13.7872,13.3617l-20.3404-0.4255l-1.0213-3.8298l3.1489-1.7021c1.3617-2.5532,1.4468-7.5745,0.6808-8.5107 c2.0426-1.5319,2.383-3.3192,2.383-3.3192s-0.4255-0.9362-3.3192-3.4042c3.3192-10.2979-3.7447-18.8936-16.8511-18.383 c-13.1064,0.5107-22.2979,7.6596-23.0638,19.2341c-0.766,11.5745,4.1702,20,4.1702,20s-22.5532,0-27.8298,0 s-6.2979,5.4468-6.2979,7.8298s0,20.9362,0,25.1915c-1.5319,2.0425-10.6383,13.5319-9.7872,19.3191 c1.4468,9.2766,9.7447,19.0213,9.7447,19.0213s0,15.8298,0,22.7234s4.9787,7.6171,7.6595,7.6171s46.0851,0,46.0851,0 s10.1277,42.1276,11.9149,48.4255C146.9683,230.2874,151.9896,229.7767,151.9896,229.7767z M258.3725,307.7341v-20.6808h12.5107 c3.2432,0,5.8723-2.6292,5.8723-5.8723v-19.2341c0-3.2432-2.6291-5.8723-5.8723-5.8723H154.9683 c-3.2432,0-5.8723,2.6292-5.8723,5.8723v19.2341c0,3.2432,2.6292,5.8723,5.8723,5.8723h93.9738L258.3725,307.7341z M227.0678,171.5446c-0.0021-0.0087-0.0042-0.0174-0.0063-0.0261c-0.0024-0.0098-0.005-0.0195-0.0074-0.0293L227.0678,171.5446z M440.6085,117.0237h-35.5958c-2.6792,0-4.8511,2.1719-4.8511,4.8511v14.3404c0,2.6792,2.1719,4.8511,4.8511,4.8511h35.5958 c2.6791,0,4.851-2.1719,4.851-4.8511v-14.3404C445.4595,119.1956,443.2877,117.0237,440.6085,117.0237z M407.785,177.9977 c-9.6075,0-17.3961,7.7885-17.3961,17.3961c0,9.6075,7.7885,17.3961,17.3961,17.3961c9.6076,0,17.3961-7.7885,17.3961-17.3961 C425.181,185.7861,417.3926,177.9977,407.785,177.9977z M329.2662,335.649c-0.6808,0.4255-4.766,11.4042-4.766,11.4042 l-11.1489,36.2553c0,0,6.6383-27.234,4.8511-38.2128c-1.7872-10.9787-8.1702-13.9574-8.1702-13.9574 c2.0507,0.2004,5.5958,0.4042,7.9575-2.7234c2.1326-2.8242,0.6383-6.7234,0.6383-6.7234s4.1709-0.3336,4.7234-3.6808 c1.0851-6.5745-5.4894-6.7021-7.5319-10.0213c-4.0424-6.569,3.2316-18.9591-17.321-20.5186 c-8.6864-0.6591-14.7526,1.038-18.3925,4.0884c-7.5205,6.3026-7.3078,20.8983-5.2652,22.8132 c-3.7021,2.2979-2.6808,12.8511,4.8936,12.5958c-3.1489,6.4681,5.6383,12.234,10.9362,7.6383l-4.9149,8.2979 c0,0-9.1915,20.7447-12,25.3405c-12.1915,1.6595-32.617-2.2979-32.617-2.2979l-8.1064-3.4468l-5.3617-3.6383l-2.1064-1.2128 c0,0-3.9575-26.3617-4.5319-29.1064s-1.5958-2.617-1.5958-2.617s-0.5993,0.1791-2.617,0.6383 c-2.0177,0.4591-1.6595,1.5319-1.6595,1.5319l2.3192,13.383c0,0,2.7234,17.4468,2.3829,18c-1.617,0-2.9362,2.9362-2.9362,2.9362 s-1.4894-0.2553-2.5106,0.0851c-1.0213,0.3404-0.9788,1.4468-0.9788,1.4468s-1.0212-0.0851-1.4042,0.9362 c-0.383,1.0213-0.0425,1.4894,1.4894,2.1277l-15.3405,23.1277c-1.2766,1.5957-3.9272,5.762-4.0212,6.5106 c-0.0941,0.7486,0.8298,1.3404,0.8298,1.3404l28.9149-0.1915c0,0,0.8298-0.1277,0.9575-1.0213 c0.1277-0.8936-0.8298-0.9574-0.8298-0.9574h-26.9362l17.2075-26.0319c0.2969,0.2131,0.632,0.4493,1.0478,0.7552 c-1.1915,2.5532,4.2553,4.1276,4.2553,4.1276l2,19.0638c0,0,0.1277,1.2341,1.1489,1.3192c1.0213,0.0851,0.8085-1.4468,0.8085-1.4468 l-0.3405-3.3192l-0.7659-11.1489l0.5106,0.9362c0,0,2.0425,13.7021,2.2979,15.5745c0.2553,1.8723,1.7021,2.0425,1.7021,2.0425 s1.7021-0.5958,3.0638-0.9362c1.3617-0.3405,1.1064-1.7021,1.1064-1.7021l-2.7234-17.9575c0,0,36.0851,8.0851,42.8085,9.3618 c6.7234,1.2766,9.9575-2.1277,9.9575-2.1277l-0.2553,4.9362l-30.9787-0.0851c0,0-1.9575-0.5958-2.8936,0.0851 c-1.3618,3.8298,0.3404,4.2553,0.3404,4.2553s2.383,0,6.9788,0.5107c0.7659,3.1489,1.7021,2.0425,1.7021,2.0425l22.9788-0.0851 v2.4681h49.3617l10.9787-37.7021c0,0,5.0213-17.4468,4.8511-19.6596C343.3938,339.7341,329.8619,335.3086,329.2662,335.649z M171.3938,33.6138c9.144,0,16.5568-7.4128,16.5568-16.5569c0-9.144-7.4128-16.5568-16.5568-16.5568 c-9.1441,0-16.5569,7.4127-16.5569,16.5568C154.8369,26.201,162.2497,33.6138,171.3938,33.6138z" fill="#f5f6f7"/></g><g id="change2_1"><path d="M171.3938,33.6138c9.1441,0,16.5568-7.4127,16.5568-16.5568s-7.4127-16.5568-16.5568-16.5568 S154.837,7.9128,154.837,17.0569S162.2497,33.6138,171.3938,33.6138z M168.4707,13.4853l2.9231-5.9229l2.9231,5.9229l6.5363,0.9498 l-4.7297,4.6103l1.1165,6.5098l-5.8462-3.0735l-5.8462,3.0735l1.1165-6.5098l-4.7297-4.6103L168.4707,13.4853z M407.785,194.0653 c2.3594,0,4.272-1.9126,4.272-4.272c0-2.3593-1.9126-4.272-4.272-4.272c-2.3593,0-4.272,1.9127-4.272,4.272 C403.513,192.1527,405.4257,194.0653,407.785,194.0653z M407.785,196.9421c-4.1204,0-7.4607,3.7268-7.4607,8.324h14.9214 C415.2457,200.6689,411.9055,196.9421,407.785,196.9421z M419.6435,124.0449c-3.1686-2.3765-5.6772,2.1124-5.6772,2.1124 s-2.5085-4.4889-5.6771-2.1124c-3.6039,2.7029,2.9046,10.6942,5.6771,10.6942C416.739,134.7391,423.2474,126.7478,419.6435,124.0449 z M371.6995,81.4214l-15.0958-8.2667c-0.97-0.5313-2.1547,0.1707-2.1547,1.2767v16.5334c0,1.106,1.1847,1.8079,2.1547,1.2767 l6.6467-3.6399l8.449-4.6268C372.7081,83.4225,372.7081,81.9738,371.6995,81.4214z M219.2236,115.564l-37.7021,12.5532 c0,0,0,38.1702,0,41.3617c0,3.1915-3.5745,6.1277-7.0213,6.1277c-3.4468,0-26.5532,0-26.5532,0s5.7447,30.6383,14.6808,50.1702 c2.0425,6.3829,9.8298,10.2127,16.4681,9.8298l67.1489-10.5958c0,0-13.0213-28.5958-19.6595-55.1489 C219.947,143.3086,219.2236,115.564,219.2236,115.564z M77.0959,281.564c0,0-1.5319-3.383-4.8511-12.2554 c-3.3192-8.8723-7.4681-16.5319-11.7447-19.3404c-4.2766-2.8085-12.383-4.5319-12.383-4.5319s-0.3829,6.5106-6.4468,6.4468 c-6.0638-0.0638-8.4042-5.1702-8.4042-5.1702c-2.8085,6.5532,2.9787,15.1489,1.617,20.1702 c-1.3617,5.0213-6.0425,6.8085-6.6383,6.1277c0.5958-2.9787-0.6922-8.9789-4.1702-14.0425 c-2.8936-4.2128-5.4468-9.3617-5.1064-12.5106c-3.234,1.3617-9.5319,3.6595-12.6808,9.1064 c-5.2766,9.8723-6.1276,28.3404-3.7447,41.7872c2.383,13.4468,10.7234,13.5319,10.7234,13.5319v7.149h47.234l0.0638-12.9149 c0,0,7.3404,5.8085,11.5532,7.4681c4.2128,1.6596,7.7872-1.5958,13.6596-10.5319c5.8723-8.9362,10.7234-25.2128,10.7234-25.2128 l-13.5319-6.4468L77.0959,281.564z M65.7662,272.7874c0,0-5.2021,1.2128-5.8085,2.1064c4.4362-0.6702,5.234,1.5638,3.9894,2.617 c2.3298,1.0532,0.1915,2.9681,0.1915,2.9681s0.4149,0.4788,0.6702,2.1383c0.1595,2.5213-2.9681,3.6702-4.0532,3.5425 c-1.0851-0.1276-0.9575-1.4042-0.9575-1.4042s-0.7021,0.3192-2.234,1.1489c-1.9149,2.7447-4.4042,4.9787-6.3192,6.7021 c-1.9149,1.7234-4.0213,1.3404-4.0213,1.3404l-4.0212-8.6808c0,0,2.6595-3.9575,6.7021-7.9149 c4.0426-3.9575,11.1702-6.6064,12.5426-6.9894c1.3723-0.383,5.6808-1.3405,5.9681,0.4787S65.7662,272.7874,65.7662,272.7874z" fill="#1ea9a0"/></g><g id="change3_1"><path d="M368.8459,102.5833c7.9486-3.1164,13.6008-10.845,13.6008-19.8851c0-11.7822-9.5859-21.3682-21.3682-21.3682 c-5.0563,0-9.701,1.7742-13.3643,4.721C335.202,50.759,322.054,43.889,310.6626,46.7109c-4.8962,1.2124-9.2319,4.143-12.8997,8.615 c-0.0808,0.0118-0.1602,0.0364-0.2297,0.0896l-78.5307,59.487l-37.0982,12.569V93.82c10.1591-10.0842,22.0162-22.0609,28.3491-30.03 c14.9725-18.8421,24.2151-37.9289,24.3526-38.2144c2.9418-5.3572,3.9358-10.1161,2.5312-12.1265 c-0.2925-0.4197-0.6956-0.6841-1.1611-0.8178c1.1548-1.6042,0.5939-2.6251,0.2573-3.0215 c-0.4622-0.5444-1.2471-0.8349-1.9977-0.8242c0.2714-1.3992-0.4111-2.0913-0.7611-2.3418c-0.6331-0.4512-1.5315-0.5307-2.441-0.2943 c0.2831-1.3862-0.3613-2.0495-0.6932-2.2863c-1.0352-0.7402-2.8027-0.4272-4.2031,0.7422 c-0.8135,0.6793-2.4437,2.4864-3.6567,4.4565c-0.0304,0.0258-0.0635,0.0477-0.088,0.0815l-1.9531,2.7065 c-0.0737-1.2998-0.2173-3.4072-0.4839-6.0156c-0.3281-3.209-2.6538-5.5811-4.4263-5.5332c-0.376,0.0161-1.6045,0.2192-1.6362,2.1558 l-0.0122,1.1187c-0.0308,3.7051-0.0771,9.3042-2.2456,14.4316c-1.5078,3.5664-1.4761,6.438-1.4556,8.3384 c0.0122,1.0791,0.0215,1.9316-0.2856,2.4443c-1.1207,2.3848-26.1311,30.1251-41.7909,44.5947 c-0.0375-0.009-0.0732-0.0229-0.1134-0.0229h-20.2238l-0.8454-2.8179c1.6323-0.663,2.9655-1.4409,3.2987-2.289 c0.9922-2.5249,1.3057-5.3208,0.9575-8.5386c0.7241-0.604,2.4648-2.2329,1.9517-3.5586c-0.4175-1.0796-2.3589-2.5796-3.2485-3.2251 c1.1528-1.7222,1.5469-3.9351,1.1396-6.438c-0.6055-3.7212-2.896-7.3828-5.8359-9.3286c-4.8198-3.1895-12.377-3.8403-20.2173-1.7446 c-6.3804,1.7065-10.9746,5.0869-13.6553,10.0483c-3.3345,6.1709-3.4404,14.4536-0.3066,23.9531 c0.5035,1.5262,1.2068,2.8193,2.0378,3.939H86.6597c-4.1235,0-7.4785,3.355-7.4785,7.4785v25.9093 c-6.3962,7.3069-11.0445,15.217-9.5503,21.5253c1.3259,5.599,5.231,11.441,9.5848,16.6496 c-0.0198,0.0538-0.0345,0.1104-0.0345,0.1712v23.5107c0,4.1235,3.355,7.4785,7.4785,7.4785h46.3386l12.0662,48.7261 c0.7861,3.1729,3.3535,5.3564,6.0439,5.3564c0.395,0,0.7925-0.0469,1.187-0.1445l10.5782-2.6194 c3.0229,5.4166,8.683,8.7396,14.8437,8.7396c0.9067,0,1.8247-0.0713,2.7456-0.2188l65.9517-10.5646l97.1547,15.9543 c0.0273,0.0049,0.0547,0.0068,0.0815,0.0068c0.0158,0,0.0299-0.0067,0.0454-0.0081c3.5423,1.5096,7.029,2.2867,10.4072,2.2864 c1.7515-0.001,3.4756-0.207,5.1616-0.625c24.354-6.0313,33.2666-54.96,19.8672-109.0698 C376.4237,122.9665,372.9616,112.4331,368.8459,102.5833z M361.0786,62.3301c11.231,0,20.3682,9.1372,20.3682,20.3682 s-9.1372,20.3682-20.3682,20.3682s-20.3682-9.1372-20.3682-20.3682S349.8477,62.3301,361.0786,62.3301z M323.1563,179.3042 c0.0057-0.0014,0.0097-0.0057,0.0154-0.0073c0.0093-0.0022,0.0192-0.0012,0.0286-0.0035c2.519-0.6235,4.0483-4.3608,4.3066-10.5229 c0.25-5.9673-0.6831-13.5781-2.6274-21.4307c-4.127-16.6631-11.3359-28.7344-16.3965-27.478 c-0.0104,0.0026-0.0201,0.0075-0.0305,0.0102c-0.0045,0.001-0.009-0.0005-0.0135,0.0005l-16.1632,4.0029 c-3.6399-36.5482,3.984-65.379,20.3043-69.4204c9.1538-2.2675,19.9822,3.6858,30.5113,16.754 c-2.1295,3.3221-3.3809,7.2587-3.3809,11.4891c0,11.7822,9.5859,21.3682,21.3682,21.3682c0.2964,0,0.5847-0.0325,0.8782-0.0445 c4.166,9.8604,7.6708,20.4748,10.4153,31.5567c12.3423,49.8389,5.6021,94.542-15.0249,99.6514 c-1.2979,0.3213-2.6172,0.4785-3.9595,0.4785c-15.5298-0.0031-33.6548-21.0858-46.3918-52.4019L323.1563,179.3042z M308.7231,120.8325c0.1655-0.041,0.3354-0.061,0.5117-0.061c3.9751,0,10.5962,10.3438,14.6738,26.8086 c1.9224,7.7627,2.8452,15.2734,2.5991,21.1484c-0.2349,5.5972-1.5278,9.0942-3.5479,9.5942 c-2.0205,0.5034-4.7954-1.9883-7.6152-6.8301c-2.9595-5.0811-5.6479-12.1543-7.5703-19.917 C303.5166,134.3809,304.8276,121.7974,308.7231,120.8325z M233.5508,9.9751c0.1812-0.1255,0.4473-0.1895,0.731-0.1895 c0.439,0,0.9194,0.1538,1.1895,0.4717c0.4341,0.5112,0.1499,1.3682-0.7788,2.3604c-1.4985,0.5591-4.6489,3.7461-5.7051,6.1289 c-0.1836,0.4136-0.2988,0.7935-0.3452,1.1372c-0.3892,0.1533-0.9565,0.1123-1.3599-0.2153 c-0.5352-0.436-0.5752-1.2471-0.1128-2.2837C228.3428,14.7554,230.8472,11.8467,233.5508,9.9751z M232.8931,7.2578 c0.5951,0.4252,0.4214,1.2794,0.2319,1.8184c-0.0472,0.0267-0.0992,0.046-0.1436,0.0766c-2.8867,1.9985-5.4639,4.9971-6.7251,7.8247 c-0.182,0.408-0.278,0.7645-0.3372,1.0948c-0.9776-0.1953-1.5622-0.5882-1.74-1.2188c-0.6738-2.3892,3.835-7.4648,5.6626-8.9907 C230.9531,6.9346,232.2905,6.8267,232.8931,7.2578z M226.7778,5.373c1.127-0.9395,2.4243-1.0938,2.9814-0.6963 c0.5708,0.4077,0.3232,1.3389,0.125,1.8574c-0.0128,0.0335-0.0117,0.0676-0.0171,0.1017c-0.2296,0.1345-0.4546,0.2828-0.666,0.4594 c-0.8608,0.7186-4.544,4.3609-5.7161,7.5099c-1.1788-0.1688-1.3737-0.7365-1.4363-0.9332 C221.3936,11.6025,225.0996,6.7744,226.7778,5.373z M186.4204,56.5186c11.5571-12.1636,23.9399-26.1704,24.3623-27.2773 c0.4214-0.6865,0.4111-1.6177,0.397-2.9067c-0.021-1.9258-0.0498-4.5635,1.3765-7.9375c2.2456-5.3105,2.2935-11.0288,2.3247-14.813 l0.0122-1.1104c0.0122-0.7598,0.2407-1.1543,0.6792-1.1733c0.9966-0.0537,3.0913,1.729,3.3882,4.6357 c0.4492,4.396,0.5479,7.3525,0.5488,7.3818c0.0004,0.0139,0.0117,0.0237,0.0133,0.0374l-0.0109,0.0012 c0,0,0.4063,3.709,0.7466,6.7734c0.3262,2.9355,0.0107,7.4512-0.9629,9.2373c-0.1323,0.2422-0.043,0.5459,0.1997,0.6782 c0.0757,0.0415,0.1577,0.061,0.2388,0.061c0.1772,0,0.3486-0.0942,0.4395-0.2607c1.0786-1.978,1.4287-6.6777,1.0791-9.8262 c-0.2951-2.6561-0.6393-5.793-0.7257-6.5815l0.4654-0.6451c-0.0389,0.4231-0.0104,0.8213,0.1036,1.1812 c0.1952,0.6166,0.7308,1.3592,2.1101,1.5995c-0.1072,0.5519-0.1226,1.0781,0.011,1.5513c0.2983,1.0589,1.2035,1.718,2.6793,1.9691 c0.1218,0.7157,0.5097,1.1499,0.7543,1.3492c0.5771,0.4697,1.3921,0.6279,2.0928,0.4556c0.0156,0.0371,0.0322,0.0737,0.0503,0.1099 c0.2969,0.5874,0.791,0.937,1.4297,1.0103c0.0854,0.0098,0.1719,0.0146,0.2598,0.0146c1.7358,0,3.9404-1.8516,4.9712-3.084 c0.1772-0.2119,0.1494-0.5269-0.0625-0.7041c-0.2124-0.1782-0.5278-0.1494-0.7041,0.0625c-1.1865,1.4175-3.2158,2.834-4.3501,2.7178 c-0.3047-0.0352-0.5054-0.1797-0.6514-0.4683c-0.0347-0.0688-0.0562-0.1514-0.0645-0.2466c0.021-0.0786,0.0229-0.1621,0.0044-0.2427 c0.0269-0.2544,0.1196-0.5649,0.2754-0.9165c1.044-2.3549,4.1742-5.2968,5.1723-5.606c0.5576-0.0759,0.9653,0.077,1.2437,0.4756 c0.9434,1.3506,0.5332,5.3975-2.5972,11.0913c-0.0023,0.0041-0.0019,0.0087-0.004,0.0129c-0.0023,0.0045-0.0065,0.007-0.0087,0.0115 c-0.0913,0.1899-9.2959,19.2285-24.2373,38.0308c-3.2397,4.0769-7.9444,9.2197-13.1293,14.6227L182.273,60.843 C183.6839,59.386,185.0743,57.9352,186.4204,56.5186z M148.2808,78.5586c-1.3198,0.1737-4.8137,0.5142-8.6196-0.0444v-5.8798 c1.1866-0.2494,3.9185-0.8679,6.3229-1.7316L148.2808,78.5586z M152.1958,56.5186c0.2207,0.5703-0.9351,1.8691-1.8545,2.5874 c-0.1377,0.1074-0.2095,0.2793-0.189,0.4531c0.377,3.166,0.0947,5.8906-0.8638,8.3301c-0.521,1.3257-6.2485,3.0391-10.1489,3.8325 c-0.0081,0.0016-0.014,0.0072-0.0219,0.0092c-0.2549,0.0231-0.4566,0.2303-0.4566,0.4913v11.2109 c-0.0015,0.1206-0.082,2.9502-4.1689,2.9502c-5.4038,0-7.9966-3.0352-8.4917-3.688v-3.0444 c1.1291,0.1098,2.2105,0.1568,3.1875,0.1567c2.8018,0,4.7861-0.3364,4.8467-0.3472c0.1401-0.0249,0.2627-0.1084,0.3374-0.2295 s0.0947-0.2681,0.0542-0.4048l-3.8389-12.9585c-0.042-0.1421-0.145-0.2583-0.2813-0.3169s-0.2915-0.0547-0.4238,0.0127 c-3.0679,1.5488-5.5195,0.7378-6.7915-0.5371c-1.27-1.2734-1.5581-3.0508-0.7515-4.6387c1.8179-3.5801,5.6318-2.3057,5.7935-2.2495 c0.0942,0.0327,0.1987,0.0366,0.2974,0.0098c0.1245-0.0342,12.1714-3.5083,14.1309-17.0044 c1.4458,1.8848,4.3403,6.6499,6.1431,12.0635c0.0366,0.1094,0.1074,0.1978,0.1963,0.2568 C150.0151,54.23,151.8921,55.7334,152.1958,56.5186z M111.9536,69.1094c-3.0449-9.2314-2.9634-17.2412,0.2373-23.1641 c2.5444-4.71,6.9302-7.9253,13.0342-9.5581c2.9585-0.791,5.8682-1.1807,8.5908-1.1807c4.2402,0,8.0234,0.9458,10.8159,2.7935 c2.6763,1.7715,4.8467,5.2495,5.4009,8.6553c0.2388,1.4678,0.2764,3.4883-0.7119,5.2754 c-2.2651-6.2983-5.7388-11.4507-6.8027-12.3315c-0.1421-0.1187-0.3389-0.1475-0.5088-0.0771 c-0.1709,0.0703-0.2891,0.229-0.3076,0.4126c-1.2915,12.9414-12.083,16.7861-13.4058,17.209 c-0.8657-0.2417-4.8662-1.1099-6.8481,2.791c-0.9937,1.9565-0.627,4.2319,0.9351,5.7979c1.4409,1.4453,4.1128,2.4111,7.4111,0.9771 l3.5093,11.8472C130.2588,78.9526,115.626,80.2397,111.9536,69.1094z M94.8237,159.6489c-0.7676-0.8267-1.9092-1.9312-3.3545-3.3296 c-6.4238-6.2148-18.3804-17.7822-20.8657-28.2749c-0.5121-2.1622-0.2035-4.5759,0.6888-7.1193l17.6406,6.7911 c0.6388,1.2681,3.6944,5.9622,17.76,25.0801c0.0688,0.0938,0.1685,0.1606,0.2817,0.1885c3.2759,0.8193,4.9434,1.4795,8.9717,3.0752 l1.0117,0.4004c2.5356,1.0024,6.811,3.6533,9.5757,6.3545c1.7241,1.6846,1.9399,2.9419,1.6719,3.2412 c-0.1509,0.1724-0.7231,0.1191-1.5151-0.5298c-0.024-0.0197-0.0526-0.0273-0.0788-0.0417c-5.1678-4.6856-9.405-6.2119-9.5887-6.2761 c-0.2603-0.0923-0.5449,0.0464-0.6367,0.3062c-0.0913,0.2603,0.0459,0.5459,0.3062,0.6372c0.0444,0.0156,4.5244,1.6284,9.7627,6.542 c0.9336,0.8755,1.2383,1.731,0.7949,2.2319c-0.3027,0.3423-0.9458,0.4692-1.3867,0.1016c-4.9014-4.0903-9.9438-6.7759-9.9941-6.8022 c-0.2446-0.1299-0.5469-0.0356-0.6758,0.208c-0.1294,0.2441-0.0361,0.5469,0.208,0.6758c0.0463,0.0248,4.4117,2.3494,8.9354,5.9631 c-0.0002,0.0353-0.0065,0.0698,0.0012,0.1057c0.0015,0.0068,0.1333,0.6836-0.2031,1.0029c-0.2759,0.2607-0.8794,0.2827-1.7007,0.063 c-2.9443-0.7896-8.5889-4.8091-8.646-4.8496c-0.2236-0.1602-0.5361-0.1089-0.6973,0.1162 c-0.1606,0.2246-0.1089,0.5366,0.1162,0.6973c0.1838,0.1317,3.5908,2.5545,6.5678,4.0306c0.014,0.5211-0.1854,0.6886-0.3383,0.7687 c-1.0337,0.541-4.2705-0.5444-9.1626-4.1855c-0.0757-0.0566-0.1655-0.0903-0.2598-0.0977 c-0.0381-0.0029-3.8291-0.3008-6.4185-0.9229C101.6997,165.3462,98.1465,163.2271,94.8237,159.6489z M106.1862,175.085 l-0.2133-7.8207c1.7276,0.2599,3.3332,0.4041,3.8196,0.4448c3.8501,2.8496,7.0796,4.4141,9.0205,4.4136 c0.4268,0,0.7915-0.0757,1.0869-0.2295c0.3403-0.1782,0.7134-0.5425,0.8273-1.2106c0.5165,0.2238,1.0085,0.4091,1.4481,0.527 c0.458,0.123,0.8706,0.1841,1.2368,0.1841c0.6001,0,1.0742-0.1646,1.417-0.4937c0.3161-0.3031,0.4485-0.6847,0.5011-1.031 c0.3439,0.2483,0.7538,0.3767,1.1664,0.3767c0.5596,0,1.1182-0.2236,1.5024-0.6572c0.486-0.5494,0.673-1.4257,0.0828-2.464 c0.3774-0.0313,0.6755-0.1851,0.8689-0.4012c0.7002-0.7822,0.4404-2.5146-1.7178-4.623c-2.9629-2.8945-7.3159-5.5449-9.9072-6.5693 l-1.0112-0.4004c-3.8833-1.5381-5.6929-2.2549-8.9224-3.0713c-0.6182-0.8403-1.2632-1.7188-1.9258-2.624l-0.9766-36.6079 c-0.0054-0.1914-0.1191-0.3628-0.2935-0.4419c-0.1729-0.0801-0.3784-0.0527-0.5254,0.0703 c-1.3829,1.1459-12.9218,10.771-14.684,14.2096l-17.3477-6.6783c1.6155-4.0154,4.6229-8.3176,8.2395-12.4749 c0.1347-0.058,0.2316-0.176,0.274-0.3184c7.2703-8.2716,16.8712-15.9128,22.5688-19.4607 c8.1703-5.0868,20.713-4.5049,22.5143-4.3928c0.6573,0.8488,3.5123,4.0432,9.2562,4.0432c4.3075,0,5.0234-2.7692,5.1428-3.6649 c1.3518-0.0306,8.9943-0.2163,17.0056-0.6789c3.6428-0.4051,14.7389-10.9866,24.9319-21.4747l14.0696,16.9498 c-4.747,4.9277-9.8434,10.0316-14.5742,14.7266c-0.0101,0.0093-0.0193,0.0184-0.0286,0.0284 c-1.6934,1.6804-3.3436,3.3132-4.9061,4.8584c-7.6045,7.521-11.5918,11.4868-12.002,12.3755 c-0.5104,1.1055-1.452,49.1949-1.7408,64.5815h-14.1209c-0.0979-0.0524-0.2101-0.0794-0.3257-0.0576 c-0.0518,0.01-0.0964,0.0337-0.1404,0.0576H106.1862z M152.0552,229.0522c-2.5474,0.6309-5.2515-1.3789-6.02-4.4814 l-12.0067-48.4858h13.6124c0.9459,4.8818,2.0451,9.8694,3.2751,14.8364c3.8906,15.7124,8.1392,27.46,11.0181,34.5488 c0.1417,0.3488,0.2987,0.687,0.4603,1.0218L152.0552,229.0522z M180.3047,234.936c-7.437,1.1934-14.6064-2.8555-17.4438-9.8428 c-2.8667-7.0576-7.0977-18.7573-10.9741-34.4121c-1.2103-4.8867-2.2916-9.7914-3.2259-14.5962h25.765 c4.1235,0,7.4785-3.355,7.4785-7.4785v-40.0789l36.9158-12.5071c0.228,4.5579,1.7875,31.4852,7.7478,55.5855 c0.0005,0.001,0.0005,0.0024,0.001,0.0034c0.0034,0.0146,0.0073,0.0298,0.0107,0.0439c0.001,0.0034,0.002,0.0083,0.0029,0.0112 c5.9843,24.1355,17.1974,48.7192,19.0967,52.7993L180.3047,234.936z M246.7539,224.4019 c-1.271-2.707-13.0352-28.1045-19.2036-52.9888c-6.1641-24.8955-7.6123-52.8701-7.752-55.8594l75.9753-57.5513 c-4.2225,6.2419-7.3906,14.7958-9.2892,25.3545c-3.6958,20.5537-2.1646,46.2744,4.311,72.4233s17.1245,49.6118,29.9844,66.0659 c6.5433,8.3718,13.269,14.4085,19.855,17.9729L246.7539,224.4019z M359.0249,242.0034 c-11.4688,2.8389-24.7681-4.5391-37.457-20.7734c-12.7754-16.3452-23.3594-39.6748-29.8018-65.6899 c-6.4424-26.0156-7.9688-51.5879-4.2974-72.0063c3.6465-20.2803,11.9688-33.0132,23.4341-35.8521 c11.004-2.7253,23.7933,4.0368,36.0515,19.025c-1.2264,1.0845-2.3283,2.3024-3.2798,3.639 c-10.7269-13.2186-21.8393-19.216-31.3346-16.8613c-21.1621,5.2407-28.23,50.4868-15.7554,100.8618 c11.6797,47.1621,36.4082,82.3555,56.8809,82.3525c1.395,0,2.7725-0.1641,4.1221-0.498 c21.1626-5.2412,28.2305-50.4883,15.7554-100.8623c-2.7261-11.0081-6.2017-21.5555-10.3264-31.3702 c1.6962-0.1534,3.3306-0.5124,4.8901-1.0403c4.1036,9.8143,7.5547,20.3134,10.2551,31.2167 C391.4287,187.7192,382.8438,236.105,359.0249,242.0034z M147.9028,62.2432c-2.9937-1.0864-5.9932-1.5337-7.5146-1.7036h-0.0005 c-0.416-0.043-0.8135,0.1279-1.0649,0.4644c-0.2549,0.3418-0.3081,0.7798-0.1421,1.1714c1.4155,3.354,3.3481,4.0459,4.7007,4.0459 c0.2627,0,0.5034-0.0264,0.7144-0.064c2.0088-0.3594,3.5767-2.103,3.6362-3.4214 C148.2417,62.5176,148.1084,62.3179,147.9028,62.2432z M144.4194,65.1729c-1.7305,0.3115-3.2651-0.8931-4.3179-3.3867 c-0.0376-0.0884,0.0034-0.1587,0.0229-0.1846c0.0244-0.0322,0.0664-0.0693,0.1318-0.0693c0.0068,0,0.0137,0.0005,0.0205,0.0015 c1.4087,0.1572,4.1211,0.5586,6.8809,1.5068C146.8696,63.8477,145.7881,64.9277,144.4194,65.1729z M171.3936,34.1138 c9.4053,0,17.0571-7.6514,17.0571-17.0566S180.7988,0,171.3936,0s-17.0566,7.6519-17.0566,17.0571 S161.9883,34.1138,171.3936,34.1138z M171.3936,1c8.854,0,16.0571,7.2031,16.0571,16.0571c0,8.8535-7.2031,16.0566-16.0571,16.0566 c-8.8535,0-16.0566-7.2031-16.0566-16.0566C155.3369,8.2031,162.54,1,171.3936,1z M166.127,19.2197l-1.0723,6.251 c-0.0322,0.1875,0.0449,0.377,0.1987,0.4888c0.1553,0.1128,0.3594,0.127,0.5269,0.0381l5.6133-2.9512l5.6138,2.9512 c0.0732,0.0386,0.1533,0.0576,0.2329,0.0576c0.1035,0,0.207-0.0322,0.2939-0.0957c0.1538-0.1118,0.231-0.3013,0.1987-0.4888 l-1.0723-6.251l4.5415-4.4268c0.1362-0.1328,0.1851-0.3315,0.1265-0.5122c-0.0591-0.1812-0.2153-0.313-0.4038-0.3403l-6.2759-0.9121 l-2.8071-5.687c-0.168-0.3418-0.7285-0.3418-0.8965,0l-2.8066,5.687l-6.2759,0.9121c-0.1885,0.0273-0.3447,0.1592-0.4038,0.3403 c-0.0586,0.1807-0.0098,0.3794,0.1265,0.5122L166.127,19.2197z M168.5425,13.98c0.1631-0.0234,0.3037-0.126,0.3765-0.2734 l2.4746-5.0142l2.4751,5.0142c0.0728,0.1475,0.2134,0.25,0.3765,0.2734l5.5337,0.8042l-4.0044,3.9033 c-0.1177,0.1147-0.1714,0.2803-0.1436,0.4424l0.9453,5.5112l-4.9497-2.6021c-0.0732-0.0386-0.1528-0.0576-0.2329-0.0576 s-0.1597,0.019-0.2329,0.0576l-4.9492,2.6021l0.9453-5.5112c0.0278-0.1621-0.0259-0.3276-0.1436-0.4424l-4.0044-3.9033 L168.5425,13.98z M257.9175,307.9409c0.0825,0.1816,0.2622,0.293,0.4551,0.293c0.0352,0,0.0708-0.0039,0.106-0.0117 c0.23-0.0498,0.394-0.2529,0.394-0.4883v-20.1807h12.0107c3.5137,0,6.3721-2.8584,6.3721-6.3721v-19.2344 c0-3.5137-2.8584-6.3721-6.3721-6.3721h-115.915c-3.5137,0-6.3726,2.8584-6.3726,6.3721v19.2344 c0,3.5137,2.8589,6.3721,6.3726,6.3721h93.6523L257.9175,307.9409z M149.5957,281.1812v-19.2344 c0-2.9619,2.4102-5.3721,5.3726-5.3721h115.915c2.9624,0,5.3721,2.4102,5.3721,5.3721v19.2344c0,2.9619-2.4097,5.3721-5.3721,5.3721 h-12.5107c-0.2764,0-0.5,0.2236-0.5,0.5v18.3789l-8.4756-18.5859c-0.0815-0.1787-0.2593-0.293-0.4551-0.293h-93.9736 C152.0059,286.5532,149.5957,284.1431,149.5957,281.1812z M160.6704,264.4897H266.543c0.2764,0,0.5-0.2236,0.5-0.5 s-0.2236-0.5-0.5-0.5H160.6704c-0.2764,0-0.5,0.2236-0.5,0.5S160.394,264.4897,160.6704,264.4897z M160.6704,272.064H266.543 c0.2764,0,0.5-0.2236,0.5-0.5s-0.2236-0.5-0.5-0.5H160.6704c-0.2764,0-0.5,0.2236-0.5,0.5S160.394,272.064,160.6704,272.064z M267.043,279.9897c0-0.2764-0.2236-0.5-0.5-0.5H160.6704c-0.2764,0-0.5,0.2236-0.5,0.5s0.2236,0.5,0.5,0.5H266.543 C266.8193,280.4897,267.043,280.2661,267.043,279.9897z M290.4253,313.2007c-3.1929,0.4033-6.0986,1.3857-7.5469,1.9355 c-0.0005,0-0.0005,0-0.0005,0c-0.3936,0.1504-0.6704,0.4883-0.7407,0.9053c-0.0713,0.4229,0.082,0.8398,0.4102,1.1143 c1.7197,1.4404,3.1553,1.9033,4.2891,1.9033c1.0874,0,1.8979-0.4248,2.416-0.8203c1.6396-1.249,2.2446-3.5381,1.6899-4.75 C290.8516,313.2905,290.645,313.1694,290.4253,313.2007z M288.646,317.4438c-1.4165,1.0781-3.3555,0.707-5.4561-1.0547 c-0.0771-0.0635-0.0723-0.1484-0.0664-0.1816c0.0078-0.0459,0.0332-0.1074,0.1099-0.1357c1.3418-0.5098,3.9717-1.4014,6.8936-1.8213 C290.2427,315.1099,289.7686,316.5884,288.646,317.4438z M440.6084,116.5234h-35.5957c-2.9507,0-5.3511,2.4004-5.3511,5.3511 v14.3408c0,2.9507,2.4004,5.3511,5.3511,5.3511h35.5957c2.9507,0,5.3511-2.4004,5.3511-5.3511v-14.3408 C445.9595,118.9238,443.5591,116.5234,440.6084,116.5234z M444.9595,136.2153c0,2.3994-1.9517,4.3511-4.3511,4.3511h-35.5957 c-2.3994,0-4.3511-1.9517-4.3511-4.3511v-14.3408c0-2.3994,1.9517-4.3511,4.3511-4.3511h35.5957 c2.3994,0,4.3511,1.9517,4.3511,4.3511V136.2153z M419.9434,123.645c-0.916-0.687-1.876-0.9316-2.854-0.7231 c-1.4458,0.3062-2.5498,1.541-3.123,2.3262c-0.5732-0.7852-1.6772-2.02-3.123-2.3262c-0.9785-0.2085-1.9385,0.0361-2.854,0.7231 c-1.2544,0.9404-1.5835,2.5425-0.9272,4.5112c1.103,3.3101,4.7813,7.083,6.9043,7.083s5.8013-3.7729,6.9043-7.083 C421.5269,126.1875,421.1978,124.5854,419.9434,123.645z M419.9219,127.8403c-1.0093,3.0283-4.4111,6.3989-5.9556,6.3989 s-4.9463-3.3706-5.9556-6.3989c-0.5239-1.5723-0.3296-2.7148,0.5781-3.3955c0.5308-0.3979,1.0522-0.5942,1.5825-0.5942 c0.1528,0,0.3066,0.0161,0.4619,0.0488c1.6714,0.3521,2.8848,2.481,2.897,2.5024c0.1768,0.3145,0.6953,0.3145,0.8721,0 c0.0122-0.0215,1.2256-2.1504,2.897-2.5024c0.6919-0.1465,1.3604,0.0322,2.0444,0.5454 C420.2515,125.1255,420.4458,126.2681,419.9219,127.8403z M430.4877,123.8445h-1.9609l-2.9102,7.1436v1.4785h3.2217v2.2725h1.6494 v-2.2725h0.8867v-1.5562h-0.8867V123.8445z M428.8383,130.9105h-1.666l1.666-4.2803V130.9105z M438.2221,123.8445h-1.7744 l-2.1787,4.4199v-4.4199h-1.6504v10.8945h1.6504v-3.2842l0.6221-1.1982l1.7275,4.4824h1.7744l-2.4902-6.2725L438.2221,123.8445z M407.7852,194.5654c2.6313,0,4.772-2.1406,4.772-4.772s-2.1406-4.772-4.772-4.772s-4.772,2.1406-4.772,4.772 S405.1538,194.5654,407.7852,194.5654z M407.7852,186.0215c2.0801,0,3.772,1.6919,3.772,3.772s-1.6919,3.772-3.772,3.772 s-3.772-1.6919-3.772-3.772S405.7051,186.0215,407.7852,186.0215z M407.7852,196.4419c-4.3896,0-7.9609,3.9585-7.9609,8.8242 c0,0.2764,0.2236,0.5,0.5,0.5h14.9214c0.2764,0,0.5-0.2236,0.5-0.5C415.7456,200.4004,412.1748,196.4419,407.7852,196.4419z M400.8384,204.7661c0.23-4.082,3.2578-7.3242,6.9468-7.3242c3.6885,0,6.7163,3.2422,6.9463,7.3242H400.8384z M407.7852,177.4976 c-9.8677,0-17.896,8.0283-17.896,17.896s8.0283,17.896,17.896,17.896s17.896-8.0283,17.896-17.896 S417.6528,177.4976,407.7852,177.4976z M407.7852,212.2896c-9.3164,0-16.896-7.5796-16.896-16.896s7.5796-16.896,16.896-16.896 s16.896,7.5796,16.896,16.896S417.1016,212.2896,407.7852,212.2896z M354.9077,92.6475c0.3101,0.1836,0.6528,0.2759,0.9961,0.2759 c0.3218,0,0.644-0.0811,0.9399-0.2432l15.0957-8.2671c0.6362-0.3481,1.0166-0.9897,1.0166-1.7148 c0-0.7256-0.3804-1.3672-1.0166-1.7153l-15.0957-8.2666c-0.6118-0.335-1.3369-0.3237-1.936,0.0327 c-0.6006,0.3555-0.959,0.9844-0.959,1.6821v16.5337C353.9487,91.6626,354.3071,92.2915,354.9077,92.6475z M354.9487,74.4312 c0-0.3408,0.1753-0.6479,0.4683-0.8218c0.1519-0.0898,0.3193-0.1348,0.4868-0.1348c0.1572,0,0.3149,0.0396,0.4595,0.1187 l15.0957,8.2666c0.311,0.1704,0.4971,0.4839,0.4971,0.8384s-0.186,0.6675-0.4971,0.8379l-8.4487,4.627l-6.647,3.6401 c-0.2988,0.1646-0.6523,0.1587-0.9458-0.0161c-0.2935-0.1738-0.4688-0.4814-0.4688-0.8223V74.4312z M397.2666,94.9575 c0.1094,0,0.2192-0.0356,0.3115-0.1094l30.2979-24.1704c0.2158-0.1719,0.251-0.4868,0.0786-0.7026 c-0.1714-0.2153-0.4858-0.251-0.7026-0.0786l-30.2979,24.1704c-0.2158,0.1719-0.251,0.4868-0.0786,0.7026 C396.9741,94.8931,397.1196,94.9575,397.2666,94.9575z M443.334,170.5654l-39.1489-8.8511 c-0.2715-0.0615-0.5376,0.1084-0.5981,0.3774c-0.0605,0.2695,0.1084,0.5371,0.3774,0.5981l39.1489,8.8511 c0.0371,0.0083,0.0742,0.0122,0.1108,0.0122c0.2285,0,0.4346-0.1577,0.4873-0.3896 C443.7725,170.894,443.603,170.6265,443.334,170.5654z M90.2715,271.0737c0.0039,0,0.0083,0,0.0127,0 c0.2764-0.0068,0.4941-0.2363,0.4873-0.5127c-0.0439-1.6973,0.9697-2.6758,3.2856-3.1719c2.6328-0.5635,4.502-2.3701,4.5801-2.4463 c0.1973-0.1934,0.2007-0.5088,0.0078-0.7061c-0.1924-0.1973-0.5083-0.2012-0.7065-0.0088 c-0.0176,0.0166-1.7485,1.6826-4.0908,2.1826c-2.7607,0.5918-4.1318,1.9971-4.0762,4.1758 C89.7788,270.8579,90.001,271.0737,90.2715,271.0737z M120.4395,223.9448l-30.7461-6.3975 c-0.1304-0.0254-0.2646-0.0015-0.376,0.0718c-0.1113,0.0723-0.1885,0.1865-0.2158,0.3159l-8.5029,40.8701 c-0.0269,0.1299-0.001,0.2646,0.0718,0.376c0.0728,0.1104,0.1865,0.1885,0.3164,0.2148l3.8831,0.8066 c-0.3376,0.7345-0.6657,1.5244-1.0208,2.8994c-0.653,2.5273-0.488,5.477-0.3515,6.8848l-0.0416-0.0196 c-0.2417-0.1133-0.5273-0.0186-0.6533,0.2158l-5.6118,10.4443c-1.2119-3.3887-5.2236-14.2295-10.374-24.1865 c-4.6689-9.0257-15.7554-10.9824-18.2787-11.3162l0.8974-8.6653c2.2856,0.3535,8.8208,1.1807,10.0762-0.7031 c1.6523-2.4785,3.1069-6.4209,3.4487-9.3037c0.8188-0.4287,2.8125-1.623,2.5972-2.998c-0.1968-1.2559-2.1167-3.4131-2.6538-3.9961 c-0.0811-0.7222-0.1807-1.436-0.2949-2.1362c0.2285-0.0444,0.7471-0.2046,1.2192-0.772c0.5151-0.6196,0.812-1.5161,0.8887-2.6772 c0.1929,0.8545,0.3042,1.9502,0.3047,2.9673c0,0.1768,0.0933,0.3398,0.2446,0.4302c0.1523,0.0898,0.3403,0.0933,0.4946,0.0088 c0.1675-0.0913,4.064-2.335,1.6045-11.2944c-0.8452-3.0796-3.2529-5.7715-6.9624-7.7842 c-6.4526-3.5005-15.7437-4.2725-23.1182-1.9219c-12.3784,3.9468-18.3237,14.3887-14.7949,25.9834 c2.1528,7.0723,4.7358,10.2754,6.5215,11.7168c-2.4985,0.0996-6.4346,1.1357-9.0391,6.1191 c-1.0128,1.9374-1.3916,3.9404-1.363,5.9172c-1.3792,0.4021-11.8652,3.778-15.1395,14.2078 c-3.3638,10.7148-5.4624,39.9824,3.6782,48.0566c1.5751,1.3911,3.4031,2.3136,5.3929,2.8791 c-0.0152,0.0479-0.0301,0.0963-0.0301,0.1492v6.6387c0,0.2764,0.2236,0.5,0.5,0.5h1.7276 c-0.872,3.7718-8.5783,38.3228-8.6089,79.6807H0.5c-0.2764,0-0.5,0.2236-0.5,0.5s0.2236,0.5,0.5,0.5h71.6597 c0.2764,0,0.5-0.2236,0.5-0.5s-0.2236-0.5-0.5-0.5h-5.0332c-0.0306-41.3578-7.7374-75.9089-8.6094-79.6807h2.0421 c0.2764,0,0.5-0.2236,0.5-0.5v-11.8184c2.3916,2.2979,9.2017,8.2568,14.2393,6.9434c10.7412-2.5889,21.6021-34.707,22.0591-36.0732 c0.0806-0.2402-0.0317-0.5029-0.2612-0.6104l-2.0202-0.951c0.5736-0.8837,2.4584-3.6221,5.4265-6.3137 c2.9471-2.6726,4.2101-4.1979,4.5995-4.7042l6.6309,1.3732c0.0342,0.0078,0.0684,0.0107,0.1021,0.0107 c0.2319,0,0.4399-0.1621,0.4893-0.3984l8.5029-40.8691C120.8833,224.2651,120.7095,224.0005,120.4395,223.9448z M34.1011,245.979 c0.915-1.3037,3.5903-5.1152,2.3613-8.7598c1.2109-0.1357,2.2588-0.6543,3.123-1.5479c2.21-2.2861,2.5449-6.3623,2.4883-7.6094 c-0.0068-0.1514-0.0815-0.29-0.2026-0.3799c-0.1216-0.0898-0.2769-0.1211-0.4224-0.082c-3.2329,0.8418-5.4004-0.4365-6.3462-1.9111 c-0.9438-1.4707-0.8511-3.2178,0.2422-4.5596c2.4658-3.0264,5.8262-1.0298,5.9683-0.9434c0.0381,0.0234,0.0796,0.0415,0.1221,0.0542 c3.0981,0.895,5.9902,0.5938,8.5952-0.8955c5.1182-2.9272,7.7129-9.5723,8.5864-12.2729c0.9951,2.1528,2.7217,7.2168,3.311,12.6597 c0.0117,0.1084,0.0586,0.21,0.1333,0.2891c0.9023,0.9585,2.3818,2.7798,2.5083,3.5884c0.0918,0.584-1.2734,1.5771-2.2939,2.0693 c-0.1577,0.0762-0.2642,0.2285-0.2808,0.4023c-0.2593,2.7148-1.7153,6.7217-3.3149,9.1211 c-0.7476,1.1211-6.0664,0.7842-9.6035,0.1865c-0.1338-0.0225-0.2759,0.0117-0.3862,0.0947c-0.1099,0.084-0.1802,0.21-0.1948,0.3467 l-1.0039,9.6943c-0.019,0.2402-0.5342,5.8809-5.7993,5.8809c-4.9163,0-7.5347-3.9518-7.9905-4.7081 C33.819,246.4404,33.9483,246.1967,34.1011,245.979z M66.1265,398.1274H7.1294c0.0313-42.2321,8.09-77.3566,8.6351-79.6807h41.7264 C58.0359,320.7709,66.0952,355.8954,66.1265,398.1274z M75.0552,312.1021c-5.519,1.4355-14.0479-7.4316-14.1338-7.5215 c-0.1421-0.1494-0.3594-0.1963-0.5479-0.1191c-0.1899,0.0752-0.3145,0.2598-0.3145,0.4639v12.5215H13.5107v-6.0315 c1.4002,0.3074,2.8726,0.4489,4.3926,0.4485c11.687,0,26.1479-8.2764,31.6567-12.2783c0.1895-0.1377,0.2583-0.3887,0.1646-0.6035 l-2.0289-4.6589c0.0703,0.0032,0.1404,0.0075,0.211,0.0075c4.6909-0.001,9.4824-7.1563,10.1621-8.21 c0.4838-0.2469,0.9211-0.4503,1.3309-0.6259c0.0253,0.2189,0.0893,0.4742,0.2551,0.6992c0.1948,0.2646,0.4829,0.4307,0.833,0.4814 c0.0239,0.0029,0.0474,0.0049,0.0713,0.0049c0.0254,0,0.0513-0.002,0.0767-0.0059c4.0835-0.6328,4.8677-2.376,4.8066-3.7266 c-0.0583-1.2823-0.4707-1.998-0.7701-2.3586c0.7466-0.6821,0.774-1.3932,0.6974-1.7986c-0.0883-0.4677-0.3503-0.8642-0.6738-1.1534 c0.2747-0.3137,0.4171-0.7404,0.3627-1.2167c-0.1284-1.1279-1.27-2.1895-3.1997-2.0117c-0.0816,0.0072-0.1472,0.0192-0.2265,0.0272 c1.3567-0.4055,2.7698-0.7125,3.7929-0.9344c0.5444-0.1182,1.0029-0.2178,1.3267-0.3027c1.7163-0.4473,2.3086-1.5566,2.1323-2.3975 c-0.1958-0.9375-1.3979-1.876-4.1387-1.4443c-4.7031,0.7471-6.9121,1.9131-9.9907,3.7461 c-6.8804,4.0967-11.6816,11.7842-11.8828,12.1094c-0.0078,0.0125-0.0082,0.0268-0.0147,0.0397 c-0.0159,0.0315-0.0269,0.0632-0.0359,0.0974c-0.0079,0.03-0.0143,0.0587-0.0165,0.0892c-0.0024,0.0319-0.0001,0.0628,0.0038,0.0952 c0.004,0.0338,0.0103,0.0656,0.0211,0.0978c0.0047,0.0141,0.0031,0.0287,0.0092,0.0427l5.8076,13.3369 c-0.7052,0.5032-1.4884,1.0299-2.3243,1.5673l-6.2426-13.165c-0.1182-0.25-0.4146-0.3555-0.666-0.2383 c-0.2495,0.1191-0.356,0.417-0.2373,0.666l6.2952,13.276c-10.4098,6.4782-28.8382,14.2068-37.6614,6.4125 c-8.3467-7.373-7.186-34.9033-3.3862-47.0078c2.99-9.5236,12.3286-12.8828,14.2377-13.478 c0.4503,5.3029,3.652,10.2931,5.483,13.1392l0.2539,0.3945c3.9771,6.2061,3.5952,9.4053,3.3906,11.123 c-0.0806,0.6768-0.1392,1.165,0.1172,1.5742c0.1768,0.2832,0.4751,0.3867,0.8164,0.3867c0.5425,0,1.1938-0.2617,1.6353-0.4746 c2.7109-1.3105,7.1812-5.6309,4.6987-12.5996c-1.4307-4.0135-2.5559-9.2862-1.7599-12.6859 c1.092,1.5223,3.8132,4.5033,8.3951,4.5033c5.1804,0,6.4437-4.7219,6.7207-6.2834c2.3619,0.3326,13.1273,2.2939,17.5156,10.7786 c6.1362,11.8623,10.6494,24.9922,10.6943,25.124c0.0645,0.1875,0.2339,0.3203,0.4321,0.3359 c0.1919,0.0137,0.3872-0.0869,0.4814-0.2617l3.9269-7.3094l13.523,5.8418C91.6733,289.4557,83.1125,310.1598,75.0552,312.1021z M56.7863,276.2632c0.0046,0.0222,0.0146,0.0424,0.0223,0.064c0.0143,0.041,0.0304,0.0798,0.0553,0.1161 c0.0037,0.0054,0.0042,0.0118,0.0082,0.0172c0.0102,0.0137,0.0252,0.0205,0.0365,0.0329c0.0213,0.0236,0.0367,0.0509,0.0631,0.0706 c0.01,0.0075,0.022,0.0088,0.0324,0.0154c0.0214,0.0137,0.0442,0.0216,0.0671,0.0318c0.0372,0.0165,0.0732,0.0326,0.1122,0.0396 c0.0229,0.0042,0.0454,0.0023,0.0687,0.0033c0.0401,0.0015,0.079,0.0029,0.1182-0.0051c0.0256-0.005,0.049-0.0167,0.0739-0.0258 c0.0352-0.0131,0.0692-0.0258,0.101-0.0468c0.0078-0.0051,0.017-0.0058,0.0246-0.0114c0.0122-0.0088,1.2397-0.8828,4.377-1.1602 c1.4404-0.1221,2.0591,0.6064,2.1187,1.1289c0.0186,0.1641,0.0112,0.5527-0.4575,0.6182c-0.0171,0.0024-0.0305,0.0052-0.0475,0.0076 c-0.0003,0.0001-0.0005,0.0001-0.0009,0.0001c-3.7767,0.5341-5.2869,1.3226-5.3496,1.3566 c-0.2427,0.1289-0.334,0.4307-0.2051,0.6738c0.0894,0.1699,0.2632,0.2656,0.4424,0.2656c0.0786,0,0.1582-0.0186,0.2324-0.0576 c0.014-0.0068,1.4401-0.735,4.963-1.2394c0.2686,0.0723,0.665,0.3976,0.7446,0.8175c0.0938,0.4971-0.3359,0.8926-0.7417,1.1484 c-3.0947,0.665-5.0063,1.4912-5.0869,1.5264c-0.2529,0.1104-0.3687,0.4043-0.2588,0.6572c0.082,0.1885,0.2661,0.3008,0.459,0.3008 c0.0664,0,0.1343-0.0137,0.1992-0.042c0.0187-0.0077,1.8882-0.8102,4.8432-1.451c0.0772,0.0654,0.5813,0.5404,0.6422,1.8768 c0.0762,1.6787-2.04,2.3838-3.8696,2.6787c-0.228-0.0791-0.2007-0.4072-0.1865-0.5088c0.0029-0.0181-0.0031-0.0349-0.0021-0.0529 c0.8984-0.3176,1.6769-0.4997,2.5065-0.6718c0.2705-0.0557,0.4438-0.3203,0.3882-0.5908c-0.0566-0.2705-0.3228-0.4512-0.5913-0.3877 c-1.5586,0.3232-2.9307,0.6631-5.1978,1.834c-0.0796,0.041-0.1465,0.1025-0.1938,0.1787c-0.0513,0.082-5.1719,8.208-9.647,7.8486 c-0.1332-0.0091-0.251,0.0344-0.3439,0.1072l-3.4435-7.9075c0.804-1.2386,5.3321-7.9429,11.4042-11.5581 c2.9761-1.7715,5.1094-2.8994,9.6362-3.6172c2.0332-0.3223,2.9097,0.2178,3.0029,0.6611c0.0825,0.3945-0.3823,0.958-1.4058,1.2256 c-0.3145,0.0811-0.7593,0.1777-1.2866,0.292c-2.6089,0.5654-6.9746,1.5127-8.3423,3.3398c-0.0064,0.0086-0.0074,0.019-0.0132,0.0279 c-0.0183,0.028-0.0295,0.0576-0.0417,0.0881c-0.0123,0.0307-0.0257,0.06-0.0316,0.0919c-0.0051,0.0273-0.0035,0.0541-0.004,0.0818 C56.7798,276.1908,56.7788,276.2267,56.7863,276.2632z M96.2651,277.1021c-0.1702,0.4908-0.4879,1.3925-0.9297,2.5901 l-13.3974-5.7875l1.5209-2.8309L96.2651,277.1021z M99.8306,268.3833c-3.2169,2.9164-5.1597,5.8205-5.6686,6.6236l-9.6025-4.5202 c-0.1014-0.8204-0.4682-4.3242,0.2574-7.1346c0.3931-1.5215,0.7529-2.2891,1.1338-3.1016c0.4346-0.9277,0.9272-1.9785,1.5142-4.2539 c0.1187-0.458,0.2349-0.9443,0.3496-1.4248c0.2393-1.0039,0.5942-2.4902,0.8335-2.876c0.2769-0.0107,0.7808,0.0303,1.1606,0.4492 c0.4751,0.5234,0.9004,1.7666,0.2583,4.6318c-1.4805,3.4512-0.6074,5.3125-0.5693,5.3896c0.1201,0.2461,0.4146,0.3477,0.6621,0.2295 c0.2476-0.1172,0.353-0.415,0.2388-0.6631c-0.0019-0.0043-0.055-0.1394-0.1043-0.3801l13.7051,2.8381 C103.4184,264.8834,102.1663,266.2644,99.8306,268.3833z M111.4468,264.7124l-21.2233-4.3948 c0.0216-0.7687,0.1955-1.8364,0.7906-3.2332c0.6147-2.7061,0.458-4.5938-0.4648-5.6113c-0.7793-0.8574-1.8433-0.7979-2.1484-0.7588 c-0.6606,0.0859-0.9219,0.9561-1.5591,3.625c-0.1133,0.4746-0.228,0.9551-0.3447,1.4072c-0.4555,1.7628-0.8369,2.7277-1.1966,3.5248 l-3.6208-0.7523l8.2993-39.8906l29.7671,6.1934L111.4468,264.7124z M55.3755,231.4634c0.1636,0.0459,0.3306,0.0684,0.4976,0.0684 c0.4707,0,0.9468-0.1797,1.3794-0.5264c0.5376-0.4316,0.9492-1.0811,1.1592-1.8301c0.21-0.748,0.1958-1.5176-0.0391-2.166 c-0.2563-0.7061-0.7412-1.1914-1.3647-1.3662c-0.624-0.1758-1.2905-0.0117-1.877,0.458c-0.5376,0.4316-0.9492,1.0811-1.1592,1.8301 c-0.21,0.748-0.1958,1.5176,0.0391,2.166C54.2671,230.8032,54.752,231.2886,55.3755,231.4634z M54.9346,228.2007 c0.1519-0.541,0.4512-1.0225,0.8223-1.3193c0.1548-0.125,0.4355-0.3057,0.7573-0.3057c0.0728,0,0.1479,0.0088,0.2236,0.0303 c0.4111,0.1152,0.6118,0.5156,0.6948,0.7441c0.1621,0.4473,0.168,1.0137,0.0161,1.5557c-0.1519,0.541-0.4512,1.0225-0.8223,1.3193 c-0.1899,0.1533-0.5723,0.3916-0.981,0.2754c-0.4111-0.1152-0.6118-0.5156-0.6948-0.7441 C54.7886,229.3091,54.7827,228.7427,54.9346,228.2007z M344.7183,340.9272c-0.8452-1.4355-13.7427-5.9043-15.6035-5.7334 c-1.0604,0.0958-3.5657,6.6375-14.0691,41.3079c1.2869-6.5986,2.8551-14.8265,3.5652-19.2845 c1.6436-10.317-1.0967-20.5271-6.6973-25.4811c1.9669-0.0212,4.5845-0.5167,6.4751-3.0199c1.7856-2.3652,1.2422-5.3535,0.895-6.6094 c1.6597-0.3105,4.1309-1.4111,4.5605-4.0156c0.7622-4.6143-2.0288-6.3135-4.4912-7.8125c-1.2646-0.7695-2.4585-1.4961-3.1079-2.5508 c-1.1162-1.8145-1.3257-4.1367-1.5474-6.5947c-0.5508-6.1045-1.1748-13.0234-16.1621-14.1611 c-8.2368-0.6182-14.7227,0.8281-18.751,4.2041c-5.8838,4.9307-6.5796,13.9063-6.6528,16.5391 c-0.0811,2.9277,0.3057,5.3779,1.0054,6.5557c-1.7402,1.4941-2.3813,4.8154-1.4478,7.8936c0.9619,3.1699,3.2852,5.1035,6.2949,5.293 c-1.0059,2.7725-0.1128,5.6973,2.3896,7.6182c1.3042,1.001,3.0732,1.6865,4.918,1.6855c0.9139,0,1.8455-0.1755,2.7495-0.5566 c-1.0323,1.5614-1.9833,3.1682-2.7119,4.625c-6.2827,12.5654-11.7793,25.0654-12.6396,27.0342 c-2.6978,0.0479-24.5894-0.5938-32.4175-2.4043c-1.2583-0.291-2.9819-0.6895-6.9976-2.7568 c-1.498-0.7725-2.7236-1.6787-3.9092-2.5566c-1.3341-0.9874-2.721-2.0024-4.4585-2.7991l-4.5933-30.113 c-0.0894-0.5908-0.4336-1.1074-0.9438-1.418c-0.5112-0.3096-1.1289-0.3779-1.6372-0.2002l-2.5776,0.5518 c-0.9209,0.3145-1.4834,1.2412-1.3374,2.2031l4.6724,30.6602c-0.5622-0.0739-1.1306,0.1587-1.4458,0.6309l-1.5728,2.284 c-2.7997-0.465-3.3038,0.7031-3.3896,1.0812c-0.0608,0.2689-0.0247,0.542,0.0765,0.8052c-1.1536-0.0696-1.5576,0.4773-1.6976,0.8813 c-0.274,0.7889,0.265,1.8837,1.0985,2.3738c-0.1833,0.212-0.3423,0.4902-0.37,0.8469c-0.0101,0.1313,0.0173,0.2625,0.0447,0.3937 l-18.5339,27.7645c-0.3091,0.4619-0.3374,1.0527-0.0752,1.541c0.1082,0.2026,0.2657,0.3636,0.4443,0.4941h-8.6542 c-0.2764,0-0.5,0.2236-0.5,0.5s0.2236,0.5,0.5,0.5h150.2339c0.2764,0,0.5-0.2236,0.5-0.5s-0.2236-0.5-0.5-0.5h-6.6455 c0.0609-0.0578,0.1199-0.1201,0.146-0.2061C334.1445,381.3188,345.6606,342.5298,344.7183,340.9272z M310.249,331.6609 c0.0156,0.0147,0.0251,0.0337,0.043,0.0466c5.9067,4.2803,8.9897,14.9424,7.3315,25.3516 c-1.2993,8.1572-5.4863,29.0049-5.5283,29.2148c-0.0005,0.0027,0.0005,0.0052,0,0.0079c-0.1673,0.5564-0.3289,1.0929-0.4995,1.6611 l-0.222,0.7383h-30.1304l0.7076-4.5155c8.5035-6.8008,17.1611-24.1458,17.593-25.0187c0.0161-0.0322,0.0288-0.0664,0.0371-0.1025 c0.1421-0.5771,3.4199-14.2139-1.939-19.9531c-1.8237-1.9537-4.4304-2.7374-7.7444-2.3608 c1.7186-2.5923,3.6688-5.0668,5.1331-6.4155c0.0208-0.0192,0.0308-0.0442,0.0476-0.0657c0.0211-0.0271,0.0444-0.0516,0.0595-0.0823 c0.0151-0.0308,0.0206-0.0633,0.0291-0.096c0.0078-0.0296,0.0187-0.0575,0.0209-0.0884c0.0027-0.0384-0.0053-0.0756-0.0114-0.1137 c-0.0037-0.0233,0.0001-0.0462-0.007-0.0694l-1.1094-3.5953l5.4115-1.4879c0.3221,0.6788,0.7379,1.347,1.2892,1.9836 c3.0132,3.4805,7.2148,4.7402,9.2227,4.9365C310.0653,331.644,310.1571,331.6525,310.249,331.6609z M315.8193,389.6812 c0.3813,0,0.6914,0.3105,0.6914,0.6914v2.085c0,0.3809-0.3101,0.6914-0.6914,0.6914h-68.085c-0.3813,0-0.6914-0.3105-0.6914-0.6914 v-2.085c0-0.3809,0.3101-0.6914,0.6914-0.6914H315.8193z M282.208,321.3335c-1.4165-2.125-2.2485-4.6611-2.5439-7.7529 c-0.0166-0.1738-0.123-0.3262-0.2808-0.4023c-1.0205-0.4922-2.3857-1.4854-2.2944-2.0693c0.1265-0.8086,1.606-2.6299,2.5083-3.5879 c0.0747-0.0791,0.1216-0.1807,0.1333-0.2891c0.5396-4.9814,2.0313-9.6436,3.043-12.0498c0.271,3.04,1.3379,8.9307,5.5103,11.9219 c3.0039,2.1543,7.0308,2.3652,11.9663,0.627c0.0327-0.0117,0.0654-0.0273,0.0952-0.0449c0.1421-0.0869,3.5029-2.082,5.9688,0.9424 c1.0933,1.3418,1.186,3.0898,0.2422,4.5605c-0.9463,1.4746-3.1084,2.7539-6.3467,1.9111c-0.2368-0.0586-0.4805,0.0566-0.5811,0.2783 c-0.0975,0.2155-1.9177,4.3537-0.5374,8.4044l-5.3262,1.4647l-0.6213-2.0136c-0.0645-0.21-0.2583-0.3525-0.4775-0.3525 c-0.002,0-0.0044,0-0.0063,0C288.7725,322.9399,282.9756,322.4849,282.208,321.3335z M215.8062,328.2202 c-0.0732-0.4834,0.21-0.9482,0.6147-1.0908l2.5776-0.5518c0.2847-0.0967,0.5957-0.0615,0.8521,0.0928 c0.2568,0.1563,0.4297,0.416,0.4746,0.7129l5.6388,36.9651c-0.8885-0.1053-1.8483-0.3924-3.1046-0.7816 c-0.5314-0.165-1.1118-0.3441-1.7472-0.5281l-0.1556-1.0214l-0.1772-1.675c-0.019-0.1792-0.0771-0.3453-0.1544-0.5012 L215.8062,328.2202z M218.8716,360.2231c0.1157-0.1738,0.3296-0.2588,0.5361-0.208c0.1017,0.0249,0.1902,0.0807,0.2563,0.1564 l0.3006,1.9724l0.0628,0.5937c-0.7462-0.1984-1.5671-0.3972-2.4836-0.5871L218.8716,360.2231z M212.4058,365.0415 c0.085-0.2471,0.7017-0.3398,1.8525,0.04c3.1704,1.0459,9.1929,2.6055,9.2534,2.6211c0.2656,0.0674,0.5396-0.0918,0.6089-0.3594 s-0.0913-0.54-0.3589-0.6094c-0.0553-0.0144-5.1345-1.3297-8.3902-2.3462c-0.0217-0.0092-0.039-0.0246-0.0624-0.0308 c-0.8652-0.2285-1.3193-0.8105-1.2515-1.1104c0.0625-0.2754,0.7793-0.5957,2.438-0.2852c1.5354,0.289,2.8165,0.6096,3.9254,0.9208 c0.0698,0.0408,0.1484,0.0616,0.233,0.0648c0.7023,0.2006,1.3324,0.3959,1.909,0.575c1.5137,0.4688,2.709,0.8398,3.8789,0.877 c0.0234,0.001,0.0469,0.001,0.0708,0.001c0.6479,0,1.3887-0.2783,1.6401-0.915c0.314-0.7949-0.2124-1.7773-1.6094-3.0049 c-0.0019-0.0016-0.0044-0.002-0.0063-0.0037l-0.4458-2.9224c1.3585,0.6981,2.4991,1.5226,3.6797,2.3958 c1.2173,0.9014,2.4761,1.833,4.0459,2.6416c4.127,2.125,5.9204,2.54,7.23,2.8428c4.4595,1.0313,13.146,1.6572,19.6475,2.002 c5.9565,0.3154,9.3315,0.4316,11.2524,0.4316c0.9355,0,1.5259-0.0273,1.9014-0.0732c0.0176,0.0068,0.0352,0.0127,0.0532,0.0176 l0.0083-0.0254c0.5635-0.0762,0.5942-0.1982,0.626-0.3252c0.0049-0.0205,0.0088-0.041,0.0112-0.0605 c0.6172-1.415,6.2329-14.2354,12.6772-27.124c0.5402-1.0803,1.2192-2.2606,1.9647-3.4458c3.382-0.5684,5.9827,0.0813,7.7219,1.9419 c4.833,5.1748,1.9307,18.0479,1.7119,18.9805c-0.6313,1.2598-12.6855,25.0762-21.7163,27.002 c-7.022,1.501-19.7944-2.0098-30.0562-4.8281c-3.4824-0.957-6.772-1.8604-9.4116-2.4473c-0.2837-0.0625-0.7905-0.1641-1.4653-0.2988 c-16.1509-3.2246-20.0371-5.3711-20.4526-6.6025c-0.0428-0.1262-0.0509-0.2881,0.1281-0.517 c2.6549,1.1124,6.194,1.9979,6.3865,2.0453c0.0405,0.0098,0.0806,0.0146,0.1206,0.0146c0.2241,0,0.4282-0.1523,0.4849-0.3799 c0.0664-0.2676-0.0972-0.5391-0.3652-0.6055c-0.0596-0.0146-5.9756-1.4912-8.0947-2.9414 c-0.9272-0.6338-1.0044-1.0371-0.9941-1.1807c0.0169-0.2451,0.306-0.4475,0.4232-0.51c3.9439,1.3826,9.1364,2.8224,9.1915,2.8372 c0.0444,0.0127,0.0894,0.0186,0.1338,0.0186c0.2188,0,0.4199-0.1455,0.4814-0.3672c0.0737-0.2656-0.0825-0.541-0.3486-0.6143 c-0.0586-0.0166-5.8882-1.6328-9.8491-3.0752C212.6929,366.1118,212.2852,365.3872,212.4058,365.0415z M226.7939,363.1598 c0.512,0.639,0.4442,0.9186,0.4288,0.9579c-0.0316,0.0803-0.1306,0.1475-0.2525,0.1979L226.7939,363.1598z M224.1045,393.7944 l-1.0029-10.8746l1.8931,12.7901c-0.2587-0.21-0.5839-0.3413-0.9424-0.3413l-0.814,0.0016l-0.0015-0.0612 c0.208-0.0947,0.3926-0.2373,0.5405-0.4209C224.0298,394.5776,224.1455,394.186,224.1045,393.7944z M214.5728,371.8979 c0.3428,1.0157,1.8804,2.0306,4.7322,3.0937l1.8151,19.1104c0.062,0.5889,0.5317,1.0898,1.1274,1.2676l0.0002,0.0026l-24.49,0.0482 l16.6646-24.9286c0.1014,0.0529,0.2028,0.1057,0.3103,0.1581C214.4431,371.1371,214.4677,371.5866,214.5728,371.8979z M222.1147,394.0024l-1.7704-18.6386c0.3454,0.1174,0.7108,0.2357,1.0885,0.3545l1.6765,18.1738 c0.0137,0.1328-0.0249,0.2637-0.1089,0.3672c-0.0781,0.0967-0.1875,0.1592-0.311,0.1787 C222.4175,394.4253,222.1372,394.2134,222.1147,394.0024z M223.1217,376.2254c1.429,0.4078,3.0627,0.8257,4.8741,1.2543 l2.5941,17.8469c0.0732,0.4834-0.21,0.9482-0.6147,1.0908l-2.5762,0.5508c-0.2852,0.0977-0.5952,0.0625-0.8521-0.0928 c-0.2568-0.1563-0.4297-0.416-0.4741-0.7129L223.1217,376.2254z M224.0562,397.3687l-29.1089,0.0576 c-0.1846,0-0.3535-0.1016-0.4409-0.2646s-0.0776-0.3594,0.0254-0.5137l18.2546-27.3463c0.2082,0.2267,0.4564,0.4527,0.776,0.6768 l-17.6786,26.4459l28.1714-0.0557c0.2754,0,0.4995,0.2236,0.5,0.499S224.332,397.3687,224.0562,397.3687z M278.7508,398.1274 h-53.8864c0.3107-0.2004,0.539-0.5122,0.6357-0.8785c0.1469,0.1865,0.3187,0.3544,0.5272,0.4811 c0.3257,0.1982,0.6948,0.2979,1.0513,0.2979c0.2026,0,0.4014-0.0322,0.5859-0.0967l2.5762-0.5518 c0.9209-0.3145,1.4834-1.2412,1.3379-2.2002l-2.5369-17.4542c2.0204,0.4641,4.2557,0.9415,6.7357,1.4366 c0.6655,0.1328,1.1646,0.2324,1.4443,0.2949c2.6157,0.5811,5.8936,1.4814,9.3633,2.4346c8.624,2.3691,19.002,5.2197,26.4277,5.2197 c1.501,0,2.8813-0.1172,4.1025-0.377c1.2001-0.256,2.4388-0.8571,3.6891-1.7124l-0.5735,3.6597h-32.4965 c-0.9326,0-1.6914,0.7588-1.6914,1.6914v2.085c0,0.9326,0.7588,1.6914,1.6914,1.6914h6.0173 c-0.0593,0.1606-0.0964,0.3318-0.0964,0.5127v0.4004c0,0.8223,0.6689,1.4912,1.4917,1.4912h23.8503L278.7508,398.1274z M308.575,398.1274h-28.8117l0.2464-1.5742h29.0529C308.8026,397.415,308.6562,397.8795,308.575,398.1274z M328.3231,398.1274 h-18.6976c0.1199-0.3692,0.2736-0.8794,0.4812-1.5742h4.1297c0.8228,0,1.4917-0.6689,1.4917-1.4912v-0.4004 c0-0.1808-0.0372-0.3521-0.0964-0.5127h0.1877c0.9326,0,1.6914-0.7588,1.6914-1.6914v-2.085c0-0.9326-0.7588-1.6914-1.6914-1.6914 h-3.4016l0.1354-0.4512c4.4917-14.9551,14.9404-49.7461,16.7773-52.043c2.0161,0.0488,13.4043,4.1426,14.498,5.2217 c0.1831,2.5078-9.2163,34.8838-15.6372,56.2236C328.1364,397.8155,328.1964,398.0015,328.3231,398.1274z" fill="#000000"/></g></svg>