<?xml version="1.0" encoding="UTF-8" standalone="no"?><svg xmlns="http://www.w3.org/2000/svg" xmlns:xlink="http://www.w3.org/1999/xlink" fill="#000000" height="485.4" preserveAspectRatio="xMidYMid meet" version="1" viewBox="-1.9 -12.3 512.5 485.4" width="512.5" zoomAndPan="magnify"><g id="Illustration"><g id="change1_1"><path d="M225.4182129,93.2717743C186.1969757,54.7273827,130.621933,42.6297264,84.8225403,62.6496887 C38.6215668,82.8446808,8.2172089,132.8755341,10.0684519,187.1071472 c1.3265009,38.8570557,17.3567276,72.7172241,38.8094101,104.0817871 c50.8463745,74.3390808,120.6395798,128.7605591,192.377533,180.9602356 c1.0396118,0.7565918,2.8350983,1.0219727,4.7244568,0.9372864V113.6425095 C238.643692,106.370224,232.050705,99.7902985,225.4182129,93.2717743z" fill="#ccf4e5"/></g><g id="change2_1"><path d="M249.4131012,446.3304749c-2.9219208,0-5.7591858-0.6596985-7.8287506-2.1629944 C169.7126923,391.870636,95.0387878,334.2320557,41.2561798,255.5999756 C14.4101229,216.3510742,1.327157,181.1479187,0.0865813,144.8121796 C-1.9041779,86.4584198,30.5959873,32.4598122,80.9633636,10.4447002 c49.8215179-21.775753,109.4713135-8.8796024,151.9573822,32.8767166 c4.6587219,4.5799141,9.2940979,9.1831818,14.1659241,14.0228844l3.114563,3.0883064 c1.3982086-1.4244728,2.7701416-2.8285141,4.1187134-4.2121201c5.6541138-5.7913017,10.9958801-11.2615089,16.6587524-16.4660912 C317.7089844-3.201632,382.668457-12.2768078,432.6213379,17.1846752 c51.9523926,30.6349239,77.9898682,95.4455109,63.3247986,157.6056519 c-11.9182739,50.5279236-41.7416992,90.3722992-66.3926697,119.4426422 c-50.2681274,59.2732239-111.2519226,106.6778259-169.6640625,149.0704956 C257.3148499,445.1716309,253.2895355,446.3304749,249.4131012,446.3304749z M131.3628387,11.9596624 c-15.6049805,0-31.0756912,3.0883036-45.6123123,9.4429712C39.831707,41.470768,10.2096786,90.9011459,12.036974,144.4035187 c1.158844,33.9655151,13.579195,67.1545563,39.085434,104.4477234 c52.7113342,77.0587311,126.4686737,133.9646759,197.499649,185.6485138 c0.5633698,0.0612793,3.3685303-0.2919006,4.2588196-0.8815613 c57.7933197-41.9460449,118.102829-88.8076782,167.5536346-147.120575 c23.7869263-28.0457764,52.5420227-66.4043884,63.8764954-114.4511566 c13.4741211-57.1160965-10.2778015-116.5615692-57.7612-144.5635529 C381.1593323,0.7127492,321.8948364,9.183692,279.0701599,48.5581055 c-5.4264221,4.9856529-10.6572571,10.3420219-16.1946106,16.0165634c-2.7000732,2.7642899-5.4789734,5.610321-8.4038086,8.5439148 c-2.329361,2.3264465-6.1007233,2.3381195-8.4417572,0.0233536l-7.3704834-7.3150177 c-4.8542938-4.8221893-9.4750671-9.4137802-14.1221313-13.976181 C198.0561981,25.8249207,164.4176178,11.9596624,131.3628387,11.9596624z" fill="#172627"/></g></g></svg>